<?xml version="1.0" standalone="no"?>
<!DOCTYPE svg PUBLIC "-//W3C//DTD SVG 1.1//EN" "http://www.w3.org/Graphics/SVG/1.1/DTD/svg11.dtd" >
<svg xmlns="http://www.w3.org/2000/svg">
<metadata>
<json>
<![CDATA[
{
	"fontFamily": "icons",
	"majorVersion": 1,
	"minorVersion": 82,
	"fontURL": "http://ozan.yolyapar.com",
	"designerURL": "http://ozan.yolyapar.com",
	"designer": "Ozan Yolyapar",
	"licenseURL": "http://creativecommons.org/licenses/by-nc-nd/4.0/deed.de",
	"license": "CC BY-NC-ND",
	"copyright": "Ozan Yolyapar",
	"description": "Icons, designed for Ozan Yolyapars page.\nFont generated by IcoMoon.",
	"version": "Version 1.82",
	"fontId": "icons",
	"psName": "icons",
	"subFamily": "Regular",
	"fullName": "icons"
}
]]>
</json>
</metadata>
<defs>
<font id="icons" horiz-adv-x="1024">
<font-face units-per-em="1024" ascent="960" descent="-64" />
<missing-glyph horiz-adv-x="1024" />
<glyph unicode="&#x20;" horiz-adv-x="512" d="" />
<glyph unicode="&#xe000;" glyph-name="error" data-tags="error" d="M554 384.667v256h-84v-256h84zM554 212.667v86h-84v-86h84zM512 852.667q176 0 301-125t125-301-125-301-301-125-301 125-125 301 125 301 301 125z" />
<glyph unicode="&#xe001;" glyph-name="error-outline" data-tags="error_outline" d="M512 84.667q140 0 241 101t101 241-101 241-241 101-241-101-101-241 101-241 241-101zM512 852.667q176 0 301-125t125-301-125-301-301-125-301 125-125 301 125 301 301 125zM470 640.667h84v-256h-84v256zM470 298.667h84v-86h-84v86z" />
<glyph unicode="&#xe002;" glyph-name="warning" data-tags="warning" d="M554 340.667v172h-84v-172h84zM554 170.667v86h-84v-86h84zM42 42.667l470 810 470-810h-940z" />
<glyph unicode="&#xe0be;" glyph-name="email" data-tags="email" d="M854 596.667v86l-342-214-342 214v-86l342-212zM854 768.667q34 0 59-26t25-60v-512q0-34-25-60t-59-26h-684q-34 0-59 26t-25 60v512q0 34 25 60t59 26h684z" />
<glyph unicode="&#xe0c8;" glyph-name="location-on" data-tags="location_on" d="M512 448.667q44 0 75 31t31 75-31 75-75 31-75-31-31-75 31-75 75-31zM512 852.667q124 0 211-87t87-211q0-62-31-142t-75-150-87-131-73-97l-32-34q-12 14-32 37t-72 92-91 134-71 147-32 144q0 124 87 211t211 87z" />
<glyph unicode="&#xe1b3;" glyph-name="gps-fixed" data-tags="gps_fixed" d="M512 128.667q124 0 211 87t87 211-87 211-211 87-211-87-87-211 87-211 211-87zM894 468.667h88v-84h-88q-14-134-110-230t-230-110v-88h-84v88q-134 14-230 110t-110 230h-88v84h88q14 134 110 230t230 110v88h84v-88q134-14 230-110t110-230zM512 596.667q70 0 120-50t50-120-50-120-120-50-120 50-50 120 50 120 120 50z" />
<glyph unicode="&#xe1b4;" glyph-name="gps-not-fixed" data-tags="gps_not_fixed" d="M512 128.667q124 0 211 87t87 211-87 211-211 87-211-87-87-211 87-211 211-87zM894 468.667h88v-84h-88q-14-134-110-230t-230-110v-88h-84v88q-134 14-230 110t-110 230h-88v84h88q14 134 110 230t230 110v88h84v-88q134-14 230-110t110-230z" />
<glyph unicode="&#xe333;" glyph-name="tv" data-tags="tv" d="M896 212.667v512h-768v-512h768zM896 810.667q34 0 60-26t26-60l-2-512q0-34-25-59t-59-25h-214v-86h-340v86h-214q-34 0-60 25t-26 59v512q0 34 26 60t60 26h768z" />
<glyph unicode="&#xe3a4;" glyph-name="blur-off" data-tags="blur_off" d="M128 362.667q22 0 22-22 0-20-22-20t-22 20q0 22 22 22zM256 212.667q18 0 30-12t12-30-12-30-30-12-30 12-12 30 12 30 30 12zM426 64.667q22 0 22-22t-22-22q-20 0-20 22t20 22zM128 532.667q22 0 22-20 0-22-22-22t-22 22q0 20 22 20zM256 384.667q18 0 30-13t12-31-12-30-30-12-30 12-12 30 12 31 30 13zM896 362.667q22 0 22-22 0-20-22-20t-22 20q0 22 22 22zM426 212.667q18 0 31-12t13-30-13-30-31-12-30 12-12 30 12 30 30 12zM106 714.667l54 54 694-694-56-54-160 162q2-4 2-12 0-18-12-30t-30-12-31 12-13 30 13 30 31 12q8 0 12-2l-120 120q-4-22-22-38t-42-16q-26 0-45 19t-19 45q0 24 16 42t38 22l-120 120q2-4 2-12 0-18-12-31t-30-13-30 13-12 31 12 30 30 12l12-2zM598 64.667q20 0 20-22t-20-22q-22 0-22 22t22 22zM768 640.667q-18 0-30 12t-12 30 12 30 30 12 30-12 12-30-12-30-30-12zM768 468.667q-18 0-30 13t-12 31 12 30 30 12 30-12 12-30-12-31-30-13zM768 298.667q-18 0-30 12t-12 30 12 31 30 13 30-13 12-31-12-30-30-12zM426 640.667q-18 0-30 12t-12 30 12 30 30 12 31-12 13-30-13-30-31-12zM896 490.667q-22 0-22 22 0 20 22 20t22-20q0-22-22-22zM426 788.667q-20 0-20 22t20 22q22 0 22-22t-22-22zM598 788.667q-22 0-22 22t22 22q20 0 20-22t-20-22zM588 448.667q-20 2-36 18t-18 36v10q0 26 19 45t45 19 45-19 19-45-19-45-45-19h-10zM598 640.667q-18 0-31 12t-13 30 13 30 31 12 30-12 12-30-12-30-30-12z" />
<glyph unicode="&#xe3a5;" glyph-name="blur-on" data-tags="blur_on" d="M598 576.667q26 0 45-19t19-45-19-45-45-19-45 19-19 45 19 45 45 19zM598 404.667q26 0 45-19t19-45-19-45-45-19-45 19-19 45 19 45 45 19zM426 212.667q18 0 31-12t13-30-13-30-31-12-30 12-12 30 12 30 30 12zM426 576.667q26 0 45-19t19-45-19-45-45-19-45 19-19 45 19 45 45 19zM598 64.667q20 0 20-22t-20-22q-22 0-22 22t22 22zM598 212.667q18 0 30-12t12-30-12-30-30-12-31 12-13 30 13 30 31 12zM896 362.667q22 0 22-22 0-20-22-20t-22 20q0 22 22 22zM768 724.667q18 0 30-12t12-30-12-30-30-12-30 12-12 30 12 30 30 12zM768 554.667q18 0 30-12t12-30-12-31-30-13-30 13-12 31 12 30 30 12zM768 212.667q18 0 30-12t12-30-12-30-30-12-30 12-12 30 12 30 30 12zM768 384.667q18 0 30-13t12-31-12-30-30-12-30 12-12 30 12 31 30 13zM426 404.667q26 0 45-19t19-45-19-45-45-19-45 19-19 45 19 45 45 19zM426 640.667q-18 0-30 12t-12 30 12 30 30 12 31-12 13-30-13-30-31-12zM426 788.667q-20 0-20 22t20 22q22 0 22-22t-22-22zM426 64.667q22 0 22-22t-22-22q-20 0-20 22t20 22zM128 362.667q22 0 22-22 0-20-22-20t-22 20q0 22 22 22zM598 788.667q-22 0-22 22t22 22q20 0 20-22t-20-22zM598 640.667q-18 0-31 12t-13 30 13 30 31 12 30-12 12-30-12-30-30-12zM896 490.667q-22 0-22 22 0 20 22 20t22-20q0-22-22-22zM256 724.667q18 0 30-12t12-30-12-30-30-12-30 12-12 30 12 30 30 12zM128 532.667q22 0 22-20 0-22-22-22t-22 22q0 20 22 20zM256 554.667q18 0 30-12t12-30-12-31-30-13-30 13-12 31 12 30 30 12zM256 212.667q18 0 30-12t12-30-12-30-30-12-30 12-12 30 12 30 30 12zM256 384.667q18 0 30-13t12-31-12-30-30-12-30 12-12 30 12 31 30 13z" />
<glyph unicode="&#xe3ab;" glyph-name="brightness" data-tags="brightness_6" d="M512 170.667q106 0 181 75t75 181-75 181-181 75v-512zM854 284.667v-200h-200l-142-140-142 140h-200v200l-140 142 140 142v200h200l142 140 142-140h200v-200l140-142z" />
<glyph unicode="&#xe3b9;" glyph-name="compare" data-tags="compare" d="M810 810.667q34 0 60-26t26-60v-596q0-34-26-60t-60-26h-212v384l212-256v554h-212v86h212zM426 170.667v256l-212-256h212zM426 810.667v86h86v-940h-86v86h-212q-34 0-60 26t-26 60v596q0 34 26 60t60 26h212z" />
<glyph unicode="&#xe600;" glyph-name="newtab" data-tags="new tab, external, outside, popout, link, blank" d="M192 896v-768h768v768h-768zM896 192h-640v640h640v-640zM128 64v640l-64 64v-768h768l-64 64zM429.254 274.746l192 192 146.746-146.746v384h-384l146.746-146.746-192-192z" />
<glyph unicode="&#xe601;" glyph-name="pencil" data-tags="pencil, write, edit, blog, note" d="M864 960c88.364 0 160-71.634 160-160 0-36.020-11.91-69.258-32-96l-64-64-224 224 64 64c26.742 20.090 59.978 32 96 32zM64 224l-64-288 288 64 592 592-224 224-592-592zM715.578 596.422l-448-448-55.156 55.156 448 448 55.156-55.156z" />
<glyph unicode="&#xe602;" glyph-name="disk" data-tags="disk, save, floppy" d="M896 960h-896v-1024h1024v896l-128 128zM512 832h128v-256h-128v256zM896 64h-768v768h64v-320h576v320h74.978l53.022-53.018v-714.982z" />
<glyph unicode="&#xe603;" glyph-name="embed" data-tags="embed" d="M288 704l-256-256 256-256h128l-256 256 256 256h-128zM736 704h-128l256-256-256-256h128l256 256-256 256z" />
<glyph unicode="&#xe604;" glyph-name="code" data-tags="code, embed" d="M128 448l256 256h-128l-256-256 256-256h128zM768 704h-128l256-256-256-256h128l256 256zM544 832l-160-768h96l160 768z" />
<glyph unicode="&#xe605;" glyph-name="console" data-tags="console, command line, terminal" d="M0 896v-896h1024v896h-1024zM960 64h-896v768h896v-768zM896 768h-768v-640h768v640zM448 448h-64v-64h-64v-64h-64v64h64v64h64v64h-64v64h-64v64h64v-64h64v-64h64v-64zM704 320h-192v64h192v-64z" />
<glyph unicode="&#xe606;" glyph-name="share" data-tags="share, social" d="M864 256c-45.16 0-85.92-18.738-115.012-48.83l-431.004 215.502c1.314 8.252 2.016 16.706 2.016 25.328s-0.702 17.076-2.016 25.326l431.004 215.502c29.092-30.090 69.852-48.828 115.012-48.828 88.366 0 160 71.634 160 160s-71.634 160-160 160-160-71.634-160-160c0-8.622 0.704-17.076 2.016-25.326l-431.004-215.504c-29.092 30.090-69.852 48.83-115.012 48.83-88.366 0-160-71.636-160-160 0-88.368 71.634-160 160-160 45.16 0 85.92 18.738 115.012 48.828l431.004-215.502c-1.312-8.25-2.016-16.704-2.016-25.326 0-88.368 71.634-160 160-160s160 71.632 160 160c0 88.364-71.634 160-160 160z" />
<glyph unicode="&#xe607;" glyph-name="twitter" data-tags="twitter, tweet, social" d="M1024 765.582c-37.676-16.708-78.164-28.002-120.66-33.080 43.372 26 76.686 67.17 92.372 116.23-40.596-24.078-85.556-41.56-133.41-50.98-38.32 40.83-92.922 66.34-153.346 66.34-116.022 0-210.088-94.058-210.088-210.078 0-16.466 1.858-32.5 5.44-47.878-174.6 8.764-329.402 92.4-433.018 219.506-18.084-31.028-28.446-67.116-28.446-105.618 0-72.888 37.088-137.192 93.46-174.866-34.438 1.092-66.832 10.542-95.154 26.278-0.020-0.876-0.020-1.756-0.020-2.642 0-101.788 72.418-186.696 168.522-206-17.626-4.8-36.188-7.372-55.348-7.372-13.538 0-26.698 1.32-39.528 3.772 26.736-83.46 104.32-144.206 196.252-145.896-71.9-56.35-162.486-89.934-260.916-89.934-16.958 0-33.68 0.994-50.116 2.94 92.972-59.61 203.402-94.394 322.042-94.394 386.422 0 597.736 320.124 597.736 597.744 0 9.108-0.206 18.168-0.61 27.18 41.056 29.62 76.672 66.62 104.836 108.748z" />
<glyph unicode="&#xe608;" glyph-name="feed" data-tags="feed, rss, social" d="M136.294 209.070c-75.196 0-136.292-61.334-136.292-136.076 0-75.154 61.1-135.802 136.292-135.802 75.466 0 136.494 60.648 136.494 135.802-0.002 74.742-61.024 136.076-136.494 136.076zM0.156 612.070v-196.258c127.784 0 247.958-49.972 338.458-140.512 90.384-90.318 140.282-211.036 140.282-339.3h197.122c-0.002 372.82-303.282 676.070-675.862 676.070zM0.388 960v-196.356c455.782 0 826.756-371.334 826.756-827.644h196.856c0 564.47-459.254 1024-1023.612 1024z" />
<glyph unicode="&#xe609;" glyph-name="wordpress" data-tags="wordpress, social, cms" d="M128 448.008c0-148.026 88.322-275.968 216.43-336.578l-183.178 488.784c-21.308-46.508-33.252-97.982-33.252-152.206zM771.228 466.872c0 46.234-17.054 78.236-31.654 103.142-19.458 30.82-37.72 56.894-37.72 87.716 0 34.374 26.766 66.376 64.486 66.376 1.704 0 3.32-0.204 4.976-0.302-68.316 60.97-159.34 98.196-259.308 98.196-134.16 0-252.186-67.046-320.844-168.568 9.010-0.282 17.506-0.454 24.712-0.454 40.154 0 102.34 4.752 102.34 4.752 20.69 1.182 23.132-28.434 2.458-30.822 0 0-20.81-2.368-43.952-3.55l139.834-405.106 84.044 245.456-59.822 159.65c-20.688 1.184-40.278 3.55-40.278 3.55-20.702 1.192-18.272 32.002 2.438 30.822 0 0 63.4-4.752 101.134-4.752 40.146 0 102.35 4.752 102.35 4.752 20.702 1.182 23.14-28.434 2.446-30.822 0 0-20.834-2.372-43.948-3.55l138.78-402.018 38.312 124.632c16.58 51.75 29.216 88.9 29.216 120.9zM518.742 415.296l-115.226-326.058c34.416-9.858 70.794-15.238 108.488-15.238 44.716 0 87.604 7.518 127.518 21.2-1.018 1.602-1.974 3.304-2.75 5.154l-118.030 314.942zM848.962 627.428c1.652-11.91 2.588-24.686 2.588-38.458 0-37.93-7.292-80.596-29.202-133.95l-117.286-330.272c114.162 64.828 190.938 185.288 190.938 323.258 0 65.030-17.060 126.16-47.038 179.422zM512 960c-282.77 0-512-229.23-512-512s229.23-512 512-512 512 229.23 512 512-229.23 512-512 512zM512 0c-247.424 0-448 200.576-448 448s200.576 448 448 448 448-200.576 448-448-200.576-448-448-448z" />
<glyph unicode="&#xe60a;" glyph-name="android" data-tags="android, os, mobile" d="M864 640c-35.2 0-64-28.8-64-64v-256c0-35.2 28.8-64 64-64s64 28.8 64 64v256c0 35.2-28.8 64-64 64zM96 640c-35.2 0-64-28.8-64-64v-256c0-35.2 28.8-64 64-64s64 28.8 64 64v256c0 35.2-28.802 64-64 64zM192 224c0-53.020 42.98-96 96-96h32v-128c0-35.2 28.8-64 64-64s64 28.8 64 64v128h64v-128c0-35.2 28.802-64 64-64s64 28.8 64 64v128h32c53.020 0 96 42.98 96 96v352h-576v-352zM598.598 870.506l40.504 77.806c2.032 3.902 0.5 8.758-3.402 10.79s-8.758 0.5-10.79-3.402l-41.118-78.986c-32.198 12.448-67.194 19.286-103.792 19.286-36.596 0-71.592-6.838-103.796-19.286l-41.116 78.984c-2.032 3.902-6.886 5.434-10.79 3.402s-5.434-6.886-3.402-10.79l40.5-77.808c-90.63-41.018-156.24-127.584-167.62-230.504h572.44c-11.376 102.924-76.986 189.488-167.618 230.508zM352 689.6c-25.626 0-46.4 20.774-46.4 46.4s20.774 46.4 46.4 46.4 46.4-20.774 46.4-46.4c-0.002-25.626-20.774-46.4-46.4-46.4zM608 689.6c-25.626 0-46.402 20.774-46.402 46.4s20.778 46.4 46.402 46.4 46.398-20.774 46.398-46.4c0-25.626-20.772-46.4-46.398-46.4z" />
<glyph unicode="&#xe60b;" glyph-name="windows8" data-tags="windows8, os" d="M0.35 448l-0.35 312.074 384 52.144v-364.218zM448 821.518l511.872 74.482v-448h-511.872zM959.998 384l-0.126-448-511.872 72.016v375.984zM384 16.164l-383.688 52.594-0.020 315.242h383.708z" />
<glyph unicode="&#xe60c;" glyph-name="html5" data-tags="html5, w3c" d="M60.538 960l82.144-921.63 368.756-102.37 369.724 102.524 82.3 921.476h-902.924zM784.63 658.572h-432.54l10.302-115.75h411.968l-31.042-347.010-231.844-64.254-231.572 64.254-15.83 177.512h113.494l8.048-90.232 125.862-33.916 0.278 0.078 125.934 33.992 13.070 146.55h-391.74l-30.494 341.8h566.214l-10.108-113.024z" />
<glyph unicode="&#xe60d;" glyph-name="css3" data-tags="css3, w3c" d="M152.388 911.478l-34.36-171.926h699.748l-21.884-111.054h-700.188l-33.892-171.898h699.684l-39.018-196.064-282.012-93.422-244.4 93.422 16.728 85.042h-171.898l-40.896-206.352 404.226-154.704 466.006 154.704 153.768 772.252z" />
<glyph unicode="&#xe60e;" glyph-name="chrome" data-tags="chrome, browser, internet" d="M258.278 513.458l-146.532 253.802c93.818 117.464 238.234 192.74 400.254 192.74 187.432 0 351.31-100.736 440.532-251h-417.77c-7.504 0.65-15.092 1-22.762 1-121.874 0-224.578-83.644-253.722-196.542zM695.306 635h293.46c22.74-57.93 35.234-121.004 35.234-187 0-280.826-226.1-508.804-506.186-511.926l209.394 362.678c29.48 42.378 46.792 93.826 46.792 149.248 0 73.17-30.164 139.42-78.694 187zM326 448c0 102.56 83.44 186 186 186s186-83.44 186-186c0-102.56-83.44-186-186-186s-186 83.44-186 186zM582.182 195.558l-146.578-253.878c-246.532 36.884-435.604 249.516-435.604 506.32 0 91.218 23.884 176.846 65.696 251.024l209.030-362.054c41.868-89.112 132.476-150.97 237.274-150.97 24.3 0 47.836 3.34 70.182 9.558z" />
<glyph unicode="&#xe60f;" glyph-name="in-alt" data-tags="in-alt, right, enter, sign in, login" d="M960 960h-448c-35.376 0-64-28.656-64-64s28.624-64 64-64h384v-768h-384c-35.376 0-64-28.656-64-64s28.624-64 64-64h448c35.376 0 64 28.656 64 64v896c0 35.344-28.624 64-64 64zM448 192l256 256-256 256v-192h-390.818c-31.606 0-57.182-28.656-57.182-64s25.576-64 57.182-64h390.818v-192z" />
<glyph unicode="&#xe610;" glyph-name="cc" data-tags="cc, creative commons" d="M505.446 952.269c-271.462-3.635-488.55-226.611-484.915-498.022s226.611-488.55 498.074-484.915c271.411 3.584 488.55 226.611 484.915 498.074-3.635 271.411-226.714 488.499-498.074 484.864zM517.171 72.806c-214.323-2.918-390.349 168.499-393.216 382.822s168.55 390.349 382.874 393.216c214.272 2.867 390.298-168.55 393.165-382.822s-168.499-390.298-382.822-393.216zM391.731 377.498c-20.736 0-36.454 7.578-47.104 22.733-10.701 15.155-15.974 35.328-15.974 60.57 0 55.501 21.043 83.251 63.078 83.251 8.397 0 17.51-2.816 27.341-8.397 9.779-5.632 18.074-15.462 24.832-29.44l63.027 32.819c-25.19 45.414-67.021 68.147-125.338 68.147-39.834 0-72.704-13.158-98.816-39.526-26.061-26.368-39.117-62.003-39.117-106.854 0-45.978 12.902-81.92 38.707-107.725 25.754-25.805 59.75-38.707 101.786-38.707 26.317 0 50.432 6.605 72.294 19.814s39.014 31.283 51.354 54.323l-58.061 29.44c-11.213-26.931-30.566-40.448-58.010-40.448zM663.398 377.498c-20.787 0-36.506 7.578-47.104 22.733-10.701 15.104-15.974 35.328-15.974 60.57 0 55.501 20.992 83.251 63.078 83.251 9.011 0 18.381-2.816 28.211-8.397 9.779-5.632 18.125-15.462 24.781-29.44l62.208 32.819c-24.678 45.414-66.099 68.147-124.518 68.147-39.782 0-72.704-13.158-98.765-39.526-26.112-26.368-39.117-61.952-39.117-106.803 0-45.978 12.749-81.92 38.246-107.725 25.549-25.805 59.648-38.707 102.246-38.707 25.805 0 49.613 6.605 71.475 19.814 21.811 13.21 39.219 31.283 52.122 54.323l-58.88 29.44c-11.213-26.982-30.515-40.499-58.010-40.499z" />
<glyph unicode="&#xe611;" glyph-name="cc-by" data-tags="cc-by, creative commons" d="M512 640.768c45.67 0 68.506 22.784 68.506 68.403 0 46.234-22.835 69.325-68.506 69.325s-68.454-23.091-68.454-69.325c0-45.619 22.784-68.403 68.454-68.403zM612.966 614.349h-201.882c-8.806 0-16.23-3.072-22.426-9.216s-9.216-13.619-9.216-22.374v-201.011h56.166v-238.746h152.678v238.746h56.218v201.062c0 8.755-3.226 16.179-9.626 22.374-6.451 6.093-13.722 9.165-21.914 9.165zM512 952.32c-271.462 0-491.52-220.058-491.52-491.52s220.058-491.52 491.52-491.52 491.52 220.058 491.52 491.52-220.058 491.52-491.52 491.52zM512 59.392c-221.696 0-401.408 179.712-401.408 401.408s179.712 401.408 401.408 401.408 401.408-179.712 401.408-401.408-179.712-401.408-401.408-401.408z" />
<glyph unicode="&#xe612;" glyph-name="cc-nc" data-tags="cc-nc, creative commons" d="M512 952.32c-271.462 0-491.52-220.058-491.52-491.52s220.058-491.52 491.52-491.52 491.52 220.058 491.52 491.52-220.058 491.52-491.52 491.52zM132.864 592.589l249.344-111.667 78.080-34.202 57.958-26.368 47.411-20.224c8.806-7.578 13.21-17.51 13.21-29.798 0-17.613-6.042-30.157-18.022-37.734s-26.522-11.418-43.469-11.418c-41.011 0-77.568 14.899-109.773 44.749l-67.533-68.454c45.056-38.605 94.822-58.266 149.197-58.778v-75.52h57.037v75.52c33.894 2.918 63.334 14.131 88.218 33.792 24.832 19.61 40.55 44.851 46.95 75.878l182.221-81.152c-68.301-123.853-200.192-207.821-351.693-207.821-221.696 0-401.408 179.712-401.408 401.408 0 46.182 7.885 90.522 22.272 131.789zM650.803 467.814l-79.002 35.123-105.37 47.36c-2.918 4.096-4.352 8.192-4.352 12.288 0 14.029 5.99 24.013 18.022 29.85 11.93 5.837 25.549 8.806 40.806 8.806 28.672 0 56.73-9.677 84.275-28.979l64.102 65.843c-36.915 28.109-77.875 43.315-122.88 45.67v75.418h-57.088v-75.469c-30.464-1.741-57.088-10.445-79.923-25.856-22.784-15.565-38.298-36.147-46.49-61.901l-187.136 83.968c71.629 109.67 195.43 182.272 336.23 182.272 221.696 0 401.408-179.712 401.408-401.408 0-35.994-4.813-70.861-13.722-103.987l-248.883 111.002z" />
<glyph unicode="&#xe613;" glyph-name="cc-nd" data-tags="cc-nd, creative commons" d="M333.414 492.39h357.274v84.275h-357.274v-84.275zM333.414 334.387h357.274v84.275h-357.274v-84.275zM512 952.32c-271.462 0-491.52-220.058-491.52-491.52s220.058-491.52 491.52-491.52 491.52 220.058 491.52 491.52-220.058 491.52-491.52 491.52zM512 59.392c-221.696 0-401.408 179.712-401.408 401.408s179.712 401.408 401.408 401.408 401.408-179.712 401.408-401.408-179.712-401.408-401.408-401.408z" />
<glyph unicode="&#xe614;" glyph-name="schreg" data-tags="schreg-Logo-web (1)" horiz-adv-x="647" d="M647.425 447.896l-323.775 512.104-323.65-512.198 323.692-511.802-126.006 445.062 289.741-185.943 159.998 252.776zM271.816 498.516l89.7 141.787 121.636-192.283-38.282-60.573-173.054 111.069zM434.593 864.908l118.020 85.139-50.097-192.543zM212.875 864.908l-118.086 85.139 50.12-192.473z" />
<glyph unicode="&#xe615;" glyph-name="yl" data-tags="ozan_networks_yl" d="M261.88 739.357h-94.332l215.028-301.493v-308.858h77.158v308.858l95.583 132.64v131.268l-133.125-186.055zM642.839 739.357h-77.158v-610.351h254.505v73.703h-177.347zM513.085 950.83c-277.716 0-502.848-225.133-502.848-502.849s225.133-502.848 502.848-502.848 502.848 225.133 502.848 502.848-225.132 502.849-502.848 502.849zM513.085-11.684c-253.866 0-459.665 205.799-459.665 459.665s205.799 459.666 459.665 459.666 459.665-205.799 459.665-459.666-205.799-459.665-459.665-459.665z" />
<glyph unicode="&#xe617;" glyph-name="nz" data-tags="ozanus_ozan.us" d="M511.999 959.424c-282.451 0-511.424-228.973-511.424-511.424s228.973-511.424 511.424-511.424 511.424 228.973 511.424 511.424-228.972 511.424-511.424 511.424zM164.141 465.374l0.383 0.357 0.009-0.009c-0.13-0.117-0.265-0.228-0.393-0.348zM849.533 428.746l-308.104-287.326c-0.176-0.060-0.35-0.157-0.526-0.218-6.37-4.815-14.576-8.089-23.539-8.089-20.139 0-36.481 14.894-36.669 32.168h-0.364v476.652l-247.275-230.754c-14.76-10.561-35.383-8.795-48.093 4.834-13.558 14.539-12.948 37.155 1.079 51.051 0.261 0.192 0.512 0.425 0.714 0.668 0.255 0.228 0.492 0.486 0.689 0.76 0.090 0.090 0.168 0.195 0.244 0.295 0.207 0.184 0.398 0.387 0.568 0.602 0.176 0.19 0.342 0.392 0.485 0.607l299.868 279.634c1.476 1.674 3.131 3.224 4.938 4.613l0.918 0.873c0.052-0.022 0.114 0.001 0.167-0.018 6.249 4.444 14.143 6.887 22.734 6.887 20.022 0 36.286-15.14 36.66-32.414h0.009v-476.057l243.603 227.158c0.267 0.154 0.367 0.337 0.591 0.534 0.394 0.251 0.811 0.553 1.102 0.897 0.071 0.061 0.195 0.108 0.261 0.174l0.067-0.052 4.1 3.814c12.961 8.546 30.143 7.973 42.507-1.516l8.267-8.863c9.627-14.544 7.698-34.332-5.194-46.7l0.195-0.215z" />
<glyph unicode="&#xe618;" glyph-name="heart" data-tags="heart, like, love, favorite" d="M1024 601.844c0-86.362-37.218-164.030-96.49-217.844h0.49l-320-320c-32-32-64-64-96-64s-64 32-96 64l-319.51 320c-59.272 53.814-96.49 131.482-96.49 217.844 0 162.458 131.698 294.156 294.156 294.156 86.362 0 164.030-37.218 217.844-96.49 53.814 59.272 131.482 96.49 217.844 96.49 162.456 0 294.156-131.698 294.156-294.156z" />
<glyph unicode="&#xe900;" glyph-name="letsencrypt-logo" data-tags="letsencrypt-logo-horizontal" horiz-adv-x="967" d="M699.018 409.677h-122.635v62.85c0 50.587-41.389 91.976-91.976 91.976s-91.976-41.389-91.976-91.976v-62.85h-122.635v62.85c0 118.036 96.575 214.611 214.611 214.611s214.611-96.575 214.611-214.611v-62.85zM748.072 409.677h-528.862c-22.994 0-41.389-18.395-41.389-41.389v-390.898c0-22.994 18.395-41.389 41.389-41.389h528.862c22.994 0 41.389 18.395 41.389 41.389v390.898c0 21.461-18.395 41.389-41.389 41.389zM510.467 152.144v-53.653c0-15.329-12.263-26.060-26.060-26.060-15.329 0-26.060 12.263-26.060 26.060v53.653c-16.862 9.198-27.593 27.593-27.593 47.521 0 30.659 24.527 55.186 55.186 55.186s55.186-24.527 55.186-55.186c-3.066-21.461-13.796-38.323-30.659-47.521zM165.557 467.928h-127.234c-21.461 0-36.79 16.862-36.79 36.79 0 21.461 16.862 36.79 36.79 36.79h127.234c21.461 0 36.79-16.862 36.79-36.79 1.533-19.928-15.329-36.79-36.79-36.79zM256 668.743c-7.665 0-16.862 3.066-24.527 9.198l-101.174 82.778c-15.329 13.796-18.395 36.79-4.599 52.12s36.79 18.395 52.12 4.599l101.174-82.778c15.329-13.796 18.395-36.79 4.599-52.12-6.132-9.198-16.862-13.796-27.593-13.796zM484.407 756.12c-21.461 0-36.79 16.862-36.79 36.79v128.766c0 21.461 16.862 36.79 36.79 36.79s36.79-16.862 36.79-36.79v-128.766c0-19.928-16.862-36.79-36.79-36.79zM712.814 668.743c-10.731 0-21.461 4.599-29.126 13.796-13.796 15.329-10.731 39.856 4.599 52.12l101.174 82.778c15.329 13.796 39.856 10.731 52.12-4.599s10.731-39.856-4.599-52.12l-101.174-82.778c-6.132-7.665-15.329-9.198-22.994-9.198zM930.491 467.928h-128.766c-21.461 0-36.79 16.862-36.79 36.79 0 21.461 16.862 36.79 36.79 36.79h128.766c21.461 0 36.79-16.862 36.79-36.79s-16.862-36.79-36.79-36.79z" />
<glyph unicode="&#xe901;" glyph-name="kraft" data-tags="kraft" horiz-adv-x="955" d="M0-21.896c0 0.526 0 1.053 0 1.754 1.403 0 2.807-0.175 4.21-0.175 108.944 0 217.887 0 326.655 0 1.403 0 2.807 0.175 4.21 0.175 0.175 0 0.351 0.351 0.526 0.526-1.053 0.351-2.105 0.702-2.982 0.877 0 16.491 0 32.63 0 48.595 1.228-0.351 2.105-0.526 2.982-0.702 0 86.839 0 173.327 0 260.868-4.737-5.789-8.772-10.877-13.508-16.666 3.86 0 7.017 0 10 0 0-0.351 0-0.702 0-1.053-1.754 0-3.509-0.175-5.263-0.175-105.61 0-211.396 0-317.007 0-1.053 0-2.281 0-3.333 0-0.702 0-1.403 0.526-2.105 0.702 0 0.351 0 0.526 0.175 0.877 34.56 0 69.12 0 104.207 0 0 24.385 0 48.419 0 72.278 0.351 0 0.702 0 0.877 0 0-1.579 0-2.982 0-4.561 0-20.876 0-41.753 0-62.805 0-1.579 0.175-3.158 0.351-4.737 68.068 0 135.434 0 203.326 0-2.982 2.456-6.14 4.386-5.614 8.421-2.631 0.526-5.088 1.228-7.719 1.754-0.351 0-0.877 0.175-1.053 0-4.035-2.281-8.421-0.526-12.456-0.877 3.684 0.877 7.368-0.526 11.052 0.877-1.754 3.333-3.158 6.316-4.912 9.473-8.421 1.579-8.947 4.386-9.298 12.982-12.631 0-25.262 0-38.069 0 0 9.298 0 18.070 0 27.192 15.789 0.526 31.578-0.175 47.191 0.351-0.526 4.737-0.877 8.947-1.403 13.508-97.19 0-194.204 0-291.218 0 0 0.526 0 1.053 0 1.754 2.105 0.175 4.21 0.526 6.316 0.526 92.979 0 186.134 0 279.113 0 1.754 0 3.509 0 5.789 0 0 2.807 0.175 4.912 0 7.193 0 0.877-0.526 1.93-1.053 2.631-4.737 4.386-6.842 10.175-8.070 16.491-1.579 0-3.333 0-4.912 0-76.839 0-153.504 0-230.343 0-8.596 0-17.368 1.053-25.789-1.403 0.877 1.053 1.754 1.754 2.807 2.456 16.491 11.579 32.806 22.982 49.297 34.56 8.596 6.14 18.070 8.947 28.771 9.122 37.718 0 75.436 0.526 113.154 0.702 1.228 0 2.456 0.175 3.509 0.351 0.351 3.86 0.526 7.368 0.877 10.877 0.351 3.158 1.403 5.965 4.21 7.894 3.158 2.105 6.14 4.386 9.122 6.666 1.403 1.053 2.807 2.281 3.86 3.684 8.245 11.579 19.122 18.42 33.683 17.719 8.245-0.351 16.14 0.351 24.034 2.631 2.807 0.877 5.789 1.228 8.596 1.579 2.281 0.175 4.386 0.877 5.965 2.631 2.631 2.807 6.14 3.86 9.824 4.21 1.053 0 2.281 0.175 3.333 0.175 13.508 1.228 27.017 2.807 40.525 3.86 12.631 1.053 25.262 1.403 37.718 2.105 1.053 0 2.281 0.351 2.982 1.053 2.456 2.631 4.737 5.438 7.193 8.245 0.351 1.579 0 3.684-0.526 5.614-4.737 14.385-10.877 28.245-18.596 41.402-6.666 11.403-13.157 22.806-18.596 34.911-7.544 16.842-12.105 34.209-12.28 52.805-0.175 15.087 0.175 30.35 2.631 45.262 1.053 7.193 0.526 13.684-2.807 20.35-2.281 4.386-4.21 8.947-5.438 13.684-2.281 8.596-3.684 17.543-1.228 26.49-2.631 0-4.912 0-6.842 0-1.053-2.105-1.93-3.86-2.982-5.614 1.579 0 3.158-0.175 4.561-0.175 0-0.351 0.175-0.526 0-0.702-0.351-0.526-0.702-0.877-1.053-1.228-11.929-11.052-25.613-19.648-40.7-25.438-3.158-1.228-6.491-1.754-9.824-2.105-5.789-0.526-9.649 2.105-11.579 7.017-2.281 5.614-0.702 10.351 2.982 14.912 3.333 4.035 7.719 6.842 12.28 9.473 2.281 1.403 4.21 2.982 6.316 4.737 5.965 5.088 11.579 10.701 17.719 15.438 13.684 10.351 28.771 18.245 45.437 22.806 2.281 0.526 4.035 2.105 4.21 5.088 0.175 3.333 1.053 6.666 1.579 10 2.982 17.368 5.614 34.911 10 51.928 3.684 14.385 8.421 28.42 16.14 41.402 5.263 8.947 11.754 16.842 20.175 22.982 11.579 8.421 23.683 16.14 36.49 22.631 10.701 5.438 21.929 10 33.858 12.28 5.614 1.053 11.403 1.754 16.842 2.982 6.14 1.403 12.28 2.982 17.543 6.491 5.965 3.86 11.929 7.719 18.947 9.298 1.93 0 3.86 0 5.965 0 1.403-0.351 2.631-0.526 4.035-0.877 2.982-0.702 6.316-1.579 7.193-4.912 0.877-2.807 2.982-4.035 5.263-4.912 2.807-1.053 5.614-1.754 8.421-2.631 6.842-2.281 13.859-4.737 20.701-6.666 8.245-2.281 15.964-5.614 23.333-10.351 17.894-11.403 34.56-24.034 48.595-39.823 5.438-6.14 10.877-12.28 14.21-19.648 10.701-23.683 16.491-48.77 18.771-74.734 1.579-18.245 1.403-36.49-0.702-54.56-1.403-11.579-3.509-22.982-6.666-34.209-0.351-1.228-1.053-2.281-1.93-4.386-2.456 3.333-4.21 5.965-6.14 8.772-0.526-0.877-0.877-1.053-0.877-1.403-1.93-7.544-4.21-15.087-5.088-22.982-1.228-12.456-4.035-24.561-5.789-37.016-1.228-8.245-4.035-15.964-7.894-23.333-6.842-13.333-13.333-26.841-19.999-40.349-3.86-7.894-8.421-15.087-13.684-22.105-10-13.157-21.403-24.736-34.209-35.262-1.228-1.053-2.807-2.281-3.333-3.684-2.456-5.438-6.491-9.473-10.877-13.157-1.053-0.877-2.281-1.93-4.21-3.333 2.105-0.351 3.158-0.526 4.21-0.526 2.456-0.175 5.088 0 7.544-0.175 10.877-0.351 20.35-4.035 27.192-12.982 1.579-2.105 3.333-4.21 4.386-6.666 1.228-2.982 3.333-3.684 6.316-3.86 5.965-0.351 12.105-0.702 18.070-1.228 13.508-1.228 27.017-2.631 40.525-4.035 3.86-0.351 7.368-1.579 10.351-4.21 1.228-1.053 2.807-1.93 4.386-2.281 2.456-0.702 4.912-0.877 7.544-1.053 1.228-0.175 2.631 0 3.684 0.526 11.754 5.438 24.21 7.719 36.841 9.649 8.245 1.228 16.315 2.456 24.385 4.21 7.017 1.403 13.684 3.684 20.526 6.491-2.105 11.228 0.351 21.929 4.21 32.28 1.403 3.684 2.982 7.368 4.21 11.052s2.281 7.544 2.807 11.403c1.403 7.719 0.351 15.438-0.526 22.982-0.526 4.035-1.228 8.070-1.228 12.105 0 6.316 4.912 11.579 11.052 12.28 1.053 0.175 2.281 0.175 3.509 0.351-0.175 0.877-0.175 1.579-0.351 2.281-2.807 8.596-5.789 17.017-8.421 25.613-0.702 1.93-1.93 2.456-3.684 2.982-8.421 2.631-15.263 7.719-20.701 14.561-8.947 11.579-12.28 24.736-10.877 39.121 1.228 11.403 5.614 21.403 13.508 29.824 1.053 1.053 2.456 2.281 3.684 2.281 4.561 0.351 9.122 0.175 14.385 0.175 0-1.93 0-3.333 0-4.912 0-15.614 0-31.227 0-46.665 0-3.333 1.228-6.14 4.21-7.719s5.614-0.702 8.245 1.053c5.789 3.86 8.772 9.473 8.772 16.315 0 13.859 0 27.718 0 41.753 0 1.403 0.175 2.982 0.175 4.737 3.333 0 6.14-0.175 8.772 0s4.561-0.702 6.491-2.281c24.034-18.771 25.087-58.594 2.105-79.296-1.053-0.877-2.105-1.93-2.982-2.631 0-0.526 0-0.877 0.175-1.053 7.017-21.227 14.21-42.455 21.227-63.857 0.702-2.281 2.105-2.807 4.035-3.509 10.526-3.684 20.876-7.017 31.227-11.228 7.544-2.982 11.754-8.947 11.579-17.368 0-1.579 0-2.982 0-4.386 6.491-3.158 9.824-8.421 9.824-15.263 0-2.807-0.351-5.614-0.702-8.421-0.526-3.158-0.351-5.789 1.754-8.596 1.403-1.754 2.105-4.386 2.456-6.666 1.053-7.193 0.526-14.035-3.86-19.824 0.877-1.93 1.93-3.684 2.281-5.614 2.105-8.772 0.351-16.491-7.368-22.105-2.631-1.93-5.438-3.86-8.245-5.965 1.579-4.561 2.982-8.947 4.386-12.982 2.982-0.702 5.614-1.228 8.070-2.105 17.894-5.614 32.104-23.508 33.332-42.455 0.175-1.403 0.526-2.631 0.702-4.035 0-2.281 0-4.561 0-6.666-0.175-1.053-0.702-2.105-0.702-3.158-0.526-10-4.737-18.42-10.877-25.789-0.877-0.877-1.754-2.281-2.807-2.456-3.684-1.053-7.544-1.579-11.579-2.456-0.702 2.807-1.228 5.088-1.579 7.368-2.631 12.807-5.088 25.613-7.894 38.244-1.579 7.368-6.316 12.28-13.684 14.561-5.088 1.579-10-3.333-9.298-8.245 0.175-0.877 0.175-1.754 0.351-2.456 3.158-15.438 6.316-31.052 9.649-46.49 0.175-0.877 0.175-1.93 0.175-2.982-4.035-0.877-7.894-1.228-11.754-2.456-2.631-0.877-4.561-0.175-6.491 1.403-17.017 13.333-23.333 30.876-20.701 52.103 1.228 9.473 5.263 17.719 11.579 24.736 0.877 1.053 1.93 2.105 1.403 3.684-0.877 2.456-1.754 4.912-2.631 7.544-21.052-4.737-40.876-4.386-57.366 11.579-20.876-15.087-43.507-26.139-67.542-33.858-12.807-4.21-25.964-7.017-39.648-6.14-0.877 0-1.93-0.175-2.807-0.175-1.403-2.456-2.631-4.912-4.035-7.017-5.438-8.245-12.807-12.807-22.982-12.28-5.438 0.175-10.877 0.526-16.315 0.877-8.772 0.702-17.543 1.403-26.315 2.105-5.088 0.351-10.351 0.877-15.438 1.228-3.158-7.368-6.14-14.385-9.122-21.403 3.158-2.982 5.088-6.14 6.14-10.175 1.228-4.912 0.702-9.473-1.053-14.035-3.684-8.772-7.368-17.543-11.052-26.315-0.526-1.228-1.053-2.456-1.403-3.333 2.982-4.737 5.789-8.947 8.245-13.333 2.982-5.614 2.982-11.579 0.175-17.368-0.351-0.877-0.877-1.754-1.403-2.631-1.228-1.754-1.228-3.509-0.877-5.614 0.526-4.561 0.702-9.122 0.877-13.859 0.175-4.561-0.877-8.596-5.614-10.701 0.175-1.579 0.351-2.982 0.526-4.386 1.228-10 2.807-19.999 3.86-29.999 2.456-24.561 2.807-49.297 1.579-74.033-0.175-2.456 0.526-4.561 1.754-6.666 2.982-5.088 5.614-10.351 8.070-15.614 2.456-5.438 2.982-11.052 1.754-16.842-1.228-6.14-0.702-12.105 0.702-18.245 6.491-27.192 12.631-54.56 18.771-81.927 0.702-3.333 1.93-5.789 4.737-7.894 7.544-6.316 12.982-14.21 16.14-23.683 0.877-2.631 1.579-5.438 0.351-8.245-0.351-0.702 0.175-1.754 0.175-2.631 0.175-1.579 0.702-3.333 0.702-4.912-0.175-4.21-1.93-5.789-6.14-5.789-38.244 0-76.313 0-114.557 0-3.86 0-5.088 1.228-5.614 5.088-0.526 3.333 0.351 6.316 2.631 8.772-2.631 4.561-2.982 9.122-2.105 14.035 0.175 0.877 0.351 1.93 0.351 2.982-0.175 1.053-0.351 2.281-1.053 2.982-4.737 4.561-4.912 10.175-3.684 15.964 0.351 1.93 0.702 3.86 0.351 5.789-1.754 11.228-4.21 22.28-7.719 33.157-3.333 10.351-9.122 19.298-14.385 28.42-0.351 0.702-0.877 1.228-1.754 2.281-0.175-1.403-0.175-2.105-0.175-2.807-0.877-22.28-1.754-44.56-2.807-66.84-0.175-6.14-0.351-12.456-5.614-16.666 0.526-2.631 1.053-4.912 1.228-7.193 0-3.684 0.175-7.544-0.526-11.228-0.351-2.105-0.702-3.86 0-5.965 1.754-5.263-1.053-8.947-6.491-9.122-0.702 0-1.403 0-2.105 0-52.63 0-105.26 0-157.889 0-1.053 0-2.281 0-3.333 0-3.86 0.175-5.614 1.754-6.14 5.438-0.526 3.86 0.877 6.491 4.21 8.421-0.702 0.877-1.053 1.403-1.93 2.456-0.526-0.877-0.702-1.228-1.053-1.754-4.561-8.596-11.403-14.035-20.701-16.491-1.228-0.351-2.281-0.877-3.509-1.403-1.403 0-2.807 0-4.21 0 0 1.403 1.053 1.228 1.93 1.579 3.509 1.228 7.368 2.105 10.526 4.035 8.245 4.912 13.333 12.28 14.736 21.929 0.175 1.228 0.351 2.281 1.754 3.333s1.93 3.684 2.105 5.614c0.175 1.403 1.579 3.86-1.579 4.386 0.351 0.351 0.702 0.702 1.579 1.403-2.105 0-3.86 0-5.438 0-110.172-0.175-220.343-0.175-330.515-0.175zM490.334 654.572c-3.509 0.175-4.561 2.281-5.614 4.386-4.035 8.245-7.544 16.491-9.649 25.438-1.228 5.263-2.281 10.701-3.509 16.14-19.298 7.544-38.595 15.263-58.068 22.806-10.701 4.21-21.578 7.544-32.981 9.649-6.666 1.228-13.508 2.105-20.35 2.982-2.281 0.351-3.333-0.526-4.035-3.333-1.403-5.789-0.526-11.579 0.702-17.543 1.228 1.053 2.105 1.93 3.158 2.456 3.158 1.754 6.316 3.333 10 1.93 13.333-4.737 27.017-6.842 41.051-7.017 8.772 0 14.385-4.561 17.894-11.754 3.333-6.842 5.614-14.035 8.421-21.052 0.702-1.579 0.351-2.982-1.228-4.561-2.105 2.456-4.21 4.737-6.14 7.017 0-2.631 0.175-4.912 0-7.017-0.526-5.965-3.684-10.526-8.947-13.333-4.737-2.456-9.473-1.93-13.859 1.053-7.368 5.088-9.122 15.964-3.86 23.157 0.877 1.228 1.754 2.281 3.158 4.035-7.719 0.877-14.561-0.175-21.578-1.053-2.982-10.175-2.807-20.175-3.158-30.35-2.281 9.824-1.403 19.999-1.403 29.824-2.281 1.228-5.088 1.228-5.789 4.21 15.964 1.053 31.578 3.684 47.893 0-2.281 4.386-4.386 7.894-9.649 7.368-1.228-0.175-2.456 0.526-3.684 0.526-13.684 1.754-26.841 5.088-39.121 11.579-4.386 2.281-8.245 1.754-12.631-1.403 4.386-10.526 8.947-21.052 13.684-32.104-1.579 0.702-2.631 1.228-3.86 1.93-0.351-1.403-0.702-2.456-0.877-3.509-0.877-9.649-1.93-19.122-2.456-28.771-0.351-7.017-0.526-14.035 0-21.052 0.526-7.368 1.228-14.736 2.807-22.105 3.509-16.842 11.228-32.104 19.473-47.191 5.088-9.122 10.351-17.894 15.087-27.192 5.789-11.403 10.877-22.982 13.508-35.613 0.877-4.561 2.982-8.596 6.316-12.105 6.842-7.368 15.789-10.175 25.262-10.526 9.649-0.526 19.298 0.175 28.946 0.526 11.754 0.526 23.157 3.158 34.385 6.666 14.736 4.737 29.122 10.526 43.156 17.192 9.298 4.386 18.42 9.473 26.841 15.614 5.965 4.386 10.526 9.473 12.982 16.842 3.684 11.052 8.245 21.754 11.929 32.63 3.86 11.228 7.894 22.455 10.877 33.858 2.631 10.175 3.86 20.876 5.614 31.402 0-5.438 0-11.052 0-16.315 5.088-2.982 9.824-2.281 14.385-0.351 7.368 2.982 12.105 8.772 15.087 15.964 7.193 17.017 10.175 34.736 9.824 52.981 0 4.386-0.702 8.947-1.754 13.333-1.403 5.965-4.737 10.351-11.228 11.579-2.105 0.351-4.386 0.175-6.666 0.351-7.017 0.175-12.105-2.631-14.912-9.298-0.175-0.351-0.351-0.702-0.526-1.053-2.982-7.544-5.789-15.087-8.772-22.631-0.702-1.754-0.702-4.035-2.807-5.614-2.105 7.368-4.386 14.21-6.14 21.227-1.228 5.263-3.333 9.649-8.070 12.631-2.982 1.754-5.438 4.386-8.245 6.491-1.228 1.053-2.631 1.93-4.035 2.982-14.736-9.122-29.648-17.017-47.367-19.648 7.193-5.438 12.807-11.228 17.192-18.070-5.088-8.596-12.28-13.859-19.824-13.859 4.561 2.631 8.070 5.614 10.877 9.649 2.631 3.86 2.631 5.088-0.351 8.421-4.21 4.912-9.473 8.772-15.087 11.754-0.526 0.175-1.228 0.175-1.93 0.175 5.438-9.824 4.737-17.543-2.105-23.333-5.438-4.561-14.736-5.088-20.876 0.351-2.807 2.456-4.561 5.614-5.263 9.298-0.877 5.965 1.228 10.877 5.965 15.964-6.14-0.877-11.052-1.403-15.964-2.105-1.754-0.175-2.281-1.579-2.456-2.982-0.526-5.965-1.053-11.929-1.053-17.894 0.351-4.21 1.053-8.245 1.403-12.631zM694.538 474.578c-3.158 0.526-5.438 1.053-7.894 1.228-6.842 0.702-13.684 1.228-20.35 1.93-11.052 1.053-22.28 2.281-33.332 3.158-7.193 0.526-14.21 0.702-21.403 1.053-8.070 0.526-15.087-1.754-21.754-6.14-8.421-5.438-14.21-13.508-19.473-21.754-0.175-0.351-0.351-0.702-0.526-1.053s-0.526-0.526-0.877-0.877c2.105 8.947 6.491 16.491 13.157 22.631 8.421 7.544 18.070 11.579 29.473 11.052 1.754 0 3.86-0.526 5.789 0.526-2.281 2.456-4.737 4.035-7.544 4.912-5.789 2.105-11.579 1.754-17.368 1.403-7.193-0.526-13.684-2.631-19.298-7.368-10.526-8.772-15.964-20.701-19.824-33.332 2.105-2.281 3.86-4.21 5.789-6.316-1.053-3.684-4.035-5.965-6.842-8.421-1.228-1.053-2.281-1.93-2.456-3.684-0.175-3.158-0.702-6.316-0.702-9.649-0.175-4.035-0.702-8.070 2.105-11.754 0.877-1.053 0.526-2.982 0.702-4.561 0.175-1.403-0.175-2.807 0.175-4.21 1.579-10.701 2.982-21.227 4.912-31.929 2.456-13.333 7.368-25.789 14.035-37.543 0.351-0.526 0.877-1.053 1.403-1.754 8.070 0.877 16.14 2.105 24.034 4.035 3.684 0.877 5.965 2.631 7.544 5.965 3.86 7.368 7.894 14.561 11.579 21.929 2.281 4.561 4.035 9.473 5.965 14.21-4.386 1.93-8.947 1.93-12.631 0.526-2.281-0.877-4.737-1.93-7.193-2.281-7.193-1.053-13.508 0.351-18.771 5.789-5.789 5.965-9.473 13.157-12.456 20.701-0.175 0.351 0 0.877 0.175 1.754 1.93-3.509 3.509-6.491 5.263-9.298 3.158-5.088 6.842-9.649 11.754-12.982 4.035-2.807 13.333-3.86 18.070-0.526-3.86 2.631-7.544 5.438-8.772 10.351 3.86-4.912 9.298-7.193 15.087-8.421 2.982-0.702 6.14-0.702 9.122-1.053 5.088-0.351 10.351-0.702 15.438-1.228 7.894-0.702 15.789-1.579 23.683-2.281 7.017-0.526 14.21-1.053 21.227-1.754 10.877-1.053 21.227 5.438 24.385 15.789-1.754 0.526-1.93-0.702-2.807-1.754-1.93-2.807-3.86-5.614-6.14-7.894-2.982-2.982-6.842-3.509-10.877-1.754-7.719 2.982-12.631 8.772-15.614 16.14-7.544 18.771-7.017 37.718 0.877 56.314 4.035 9.473 11.052 16.14 21.403 18.42 0.351 0.526 0.526 0.877 1.754 1.754zM828.042 510.191c-1.053 1.228-2.105 2.456-2.982 3.86-1.228 2.105-2.631 4.386-3.158 6.842-1.754 8.070 0.526 15.263 6.14 21.227 2.456 2.631 5.088 5.088 7.719 7.719-4.561 13.859-9.122 27.543-13.508 41.051-8.596 0.702-13.333-3.684-12.456-11.403 0.526-4.912 1.228-9.649 1.754-14.561 0.877-10 1.053-19.824-2.631-29.297-2.456-6.491-4.912-13.157-7.017-19.824-3.684-10.877-3.158-21.754 1.754-32.28 2.456-5.088 5.614-9.649 10.351-13.157-8.245 3.509-13.157 10-16.14 17.894-0.526 0-0.702 0.175-0.702 0.175-17.017-6.666-35.087-9.122-52.981-11.579-9.824-1.403-19.473-3.684-28.771-7.017-2.807-1.053-5.614-2.281-9.122-3.684 1.403 1.403 2.105 2.456 3.158 3.509-2.631 0.351-4.912 0.877-7.017 1.053-2.982 0.351-6.14 0.877-9.122 0.351-4.21-0.702-7.894-2.631-11.052-5.614-5.614-5.088-8.772-11.579-10.351-18.771-2.456-10.526-2.631-21.403-1.403-32.104 0.702-6.14 1.93-12.456 5.263-18.070 1.053 0 2.105-0.175 2.982-0.175 9.824 0 19.648 0.351 29.473 0 14.035-0.526 27.718 1.228 40.876 5.614 22.28 7.193 43.156 17.719 62.805 30.35 2.281 1.403 4.386 3.333 6.666 4.912-1.053 1.93-2.105 3.684-2.982 5.263 7.017-6.316 15.087-8.772 24.21-8.772 10.351 0.175 20.876 4.035 23.683 8.772-7.894 3.684-10.351 7.368-13.333 14.736-0.351 1.053-1.579 1.93-2.456 2.456-3.509 1.403-5.789 3.684-7.368 7.017-0.877 1.93-1.754 3.684-2.631 5.614-1.93-0.877-3.509-1.579-5.088-2.456-0.175 0.351-0.526 0.526-0.702 0.877 5.614 2.456 6.14 7.017 5.789 11.929-9.824 5.088-12.982 14.736-9.649 27.543zM298.411 337.741c-0.175-2.456-0.351-4.912-0.351-7.544 0-3.509-0.702-6.666-2.105-9.824-0.877-2.105-1.754-4.035-2.456-6.316-0.351-1.228-0.526-2.807-0.526-4.035 0-1.754 1.93-3.333 4.035-3.684 1.93-0.351 3.509 0 4.21 1.93 0.877 2.281 1.754 4.737 2.456 7.193 0.526 2.105 0.175 4.21-2.456 5.088-0.702 0.351-1.228 1.053-1.93 1.579 0.175 0.175 0.175 0.351 0.351 0.526 2.281-0.702 4.386-1.403 6.842-2.105 1.228 4.737 0.877 9.473 3.86 13.508 0.351-1.053 0.526-1.754 0.702-2.631 0.877 0.175 1.754 0.175 3.333 0.351-1.403-1.754-2.456-2.982-3.333-4.386-0.526-0.702-1.053-1.579-1.228-2.456-0.175-2.281-0.175-4.386-0.175-6.666 0.175-2.281-0.175-4.386-1.053-6.491-1.228-2.807-2.281-5.789-2.982-8.772-0.702-2.807 0.175-4.035 2.982-5.088 3.684-1.403 5.789-1.403 7.193 0.877 1.93 2.982 3.509 6.316 5.263 9.649-5.088-0.526-8.245 0.702-10.175 4.737 3.684-1.228 6.842-2.281 10.526-3.333 0.877 4.21 1.93 8.421 2.807 12.631 0.702 3.333 1.93 6.14 4.21 8.421 0.175 0.175 0.351 0.175 0.702 0.175-0.175-0.702-0.175-1.228-0.351-2.281 1.228 0.175 2.105 0.351 3.158 0.526 0.175-0.351 0.351-0.702 0.526-0.877-0.877-0.702-1.754-1.403-2.807-1.93-3.684-1.579-4.386-4.737-4.035-7.894 0.877-6.842-0.877-12.982-3.333-19.298-1.228-3.158-0.702-4.21 2.281-5.614 1.228-0.526 2.631-0.877 4.035-1.053 1.754-0.351 2.982 0.351 3.86 1.754 1.93 3.158 3.86 6.491 5.789 9.649 0.351 0.702 0.526 1.579 0.877 2.631-6.666-1.228-8.772-0.351-10.877 4.561 4.21 0.351 7.719-2.631 11.929-1.579 0.877 6.842-0.351 14.035 3.333 20.876 0.351-1.228 0.526-1.754 0.702-2.281 0.877 0.351 1.579 0.702 2.631 1.403-0.877-1.93-1.403-3.333-1.93-4.737 5.263-2.982 8.596-1.579 9.649 3.86 0.175 0.877 0.175 1.93 0.351 2.982 0.175 3.158 0.526 6.316 0.702 9.649 0.877 11.403 1.754 22.806 2.631 34.209 0.351 4.912-1.053 9.122-3.509 13.157-4.912 8.245-11.228 15.438-18.070 21.929-4.21 4.035-8.947 7.544-13.684 11.052-9.122 6.666-17.017 14.561-23.333 23.859-1.93 2.807-4.21 4.912-7.193 6.14-2.982 1.403-5.965 2.631-8.947 3.333-5.088 1.053-10.351 1.579-14.912 2.281 11.579 3.509 27.367-1.579 35.262-11.403 3.509-4.386 7.017-8.772 11.052-12.456 6.491-5.965 13.684-11.228 20.526-16.666 0.702-0.526 1.579-0.702 2.807-1.403 0.702 9.298 1.053 18.070-0.526 26.841-1.228 7.368-3.333 14.385-8.245 20.35-3.86 4.737-8.772 8.245-14.736 8.596-5.438 0.351-10.877-0.702-16.14-1.579-9.298-1.403-18.771-2.982-28.069-4.561-3.509-0.526-7.017-0.526-10.351-1.228-9.473-2.105-15.964-8.245-21.227-15.964-0.877-1.228-1.93-2.281-3.158-3.158-3.509-2.631-7.193-4.912-10.526-7.544-2.807-2.281-3.158-5.614-1.053-8.596 1.579-2.281 3.509-4.035 6.14-4.737 2.807-0.877 5.614-1.754 8.421-2.456 3.86-0.877 7.719-1.754 11.579-2.631-7.544-3.333-15.438-1.403-23.508-1.403 3.509-11.754 9.122-21.052 21.052-25.262 8.772-3.158 17.894-4.561 27.017-5.965 2.281-0.351 4.561-0.526 6.842-0.877 2.807 11.754 5.965 16.842 12.28 19.648-5.438-4.386-5.789-10.701-6.14-16.842-0.351-6.316 0-12.631 4.912-17.368 3.333 0.702 6.14 3.86 9.824 1.053-0.702-0.526-1.053-0.877-1.579-1.228-3.509-1.93-4.912-4.912-5.438-8.772-1.053-7.544-0.351-14.736 1.228-22.105 0-0.351 1.053-1.228 1.579-1.93zM372.97 133.537c-2.105 15.263 2.105 30.174 2.281 45.437-2.631 0.175-4.912 0.351-7.719 0.526 0-2.105 0-3.86 0-5.438-0.175-52.279-0.526-104.382-0.526-156.661 0-7.544-1.053-14.736-4.561-21.578 0-0.175 0.175-0.526 0.175-0.526 5.263 1.053 10.526 2.631 15.964 3.333 5.438 0.526 11.228 0.175 16.842 0.175 3.333 5.789 8.772 9.122 14.385 11.929-1.754 18.42-3.509 36.665-5.263 54.735-0.175 1.579-0.702 2.807-1.754 4.035-5.088 5.088-6.491 11.403-4.912 18.245 0.702 3.333 2.105 6.666 3.158 10 0.351 1.403 0.877 2.982 0.702 4.386-1.403 8.070-3.158 15.964-4.737 23.859-0.175 1.053-0.702 2.281-1.403 2.982-2.281 2.281-4.737 4.386-7.193 6.666-4.737-1.403-9.473-3.158-15.438-2.105zM313.498 474.753c2.807-0.877 5.438-1.579 7.894-2.807 8.772-4.21 13.684-11.754 17.017-20.526 4.386-12.105 5.438-24.561 3.333-37.192-0.351-1.93 0.175-2.982 1.403-4.386 5.614-6.316 11.052-12.631 15.263-19.824 1.403-2.456 2.631-5.263 4.035-8.070 5.789 0.526 11.228 1.053 17.017 1.403-0.175 2.105-0.351 3.86-0.351 5.789-0.351 6.842-1.053 13.684-0.877 20.526 0.175 7.017 0.702 14.21 1.579 21.227 2.105 17.543 7.544 34.034 17.192 48.946 0.526 0.702 0.877 1.579 1.403 2.456-11.403 1.228-80.524-5.263-84.909-7.544zM796.639 707.377c-3.509 0-3.86 0-5.965-2.807-10.701-13.859-13.157-29.297-8.596-45.963 2.631-9.473 7.719-17.192 15.614-23.333 4.737-3.684 10-5.965 15.964-7.368 8.245-24.736 16.491-49.647 25.087-75.261 2.456 2.631 4.035 4.912 5.965 6.491 2.105 1.754 4.561 3.158 7.017 4.737-7.193 21.403-14.21 43.156-21.578 64.559-10-1.93-10-1.93-12.456-0.526 11.579 2.281 20.35 8.596 26.49 18.42 5.438 8.596 7.894 18.070 7.719 28.245-0.175 11.228-3.684 21.227-10.701 29.824-2.281 2.807-4.912 5.614-8.596 7.894 0-2.105 0-3.509 0-4.737 0-13.157 0-26.315 0-39.472 0-11.754-11.052-21.929-22.631-20.876-7.368 0.702-13.859 6.14-13.508 14.736 0.526 13.508 0.175 27.192 0.175 40.876 0 1.228 0 2.631 0 4.561zM931.547 340.021c3.86 4.035 6.14 7.894 8.070 12.28 4.737 11.228 5.263 22.806 1.754 34.56-4.21 13.333-12.105 23.508-24.911 29.473-5.263 2.456-10.877 3.684-16.491 3.333-4.21 13.157-8.421 25.964-12.982 38.771-4.912-2.807-9.473-5.263-14.035-7.719 0.526-1.754 0.877-3.333 1.403-4.737 3.333-10.175 6.666-20.175 10.175-30.35 0.702-1.754 0.877-3.158-0.702-4.912-9.824-10.175-13.859-22.455-12.631-36.49 1.053-14.736 7.193-26.841 18.947-35.964 1.579-1.228 2.982-1.93 5.088-0.877-0.175 0.702-0.351 1.579-0.526 2.281-2.982 14.736-5.965 29.648-9.122 44.384-0.526 2.281-0.175 4.386 0.526 6.491 1.754 4.21 4.912 7.193 9.298 8.421 14.912 4.561 25.613-7.017 27.543-16.491 2.807-13.859 5.614-27.718 8.596-42.455zM878.742 516.682c1.053 0 1.93 0 2.631-0.175 5.789-1.053 11.403-2.456 17.192-3.509 3.86-0.702 7.719-1.053 11.579-1.228 1.403 0 3.333 0.351 4.21 1.228 3.86 4.21 1.579 11.929-4.035 13.333-8.772 2.281-17.543 4.561-26.49 6.316-5.438 1.053-10.877 2.807-16.491 1.053-3.86-1.228-8.070-2.105-11.228-4.21-6.666-4.561-12.807-9.824-19.298-14.912-4.912-4.035-7.368-9.122-6.491-15.438 0.702-5.614 2.456-10.701 7.894-12.631 7.368 5.614 14.385 10.877 21.403 16.14 5.263 3.86 10.877 6.842 17.719 7.719 0.702 2.105 1.053 4.035 1.403 6.316zM882.601 487.209c7.017-1.228 13.508-2.631 20.175-3.509 4.21-0.702 8.596-0.877 12.982-1.228 1.403-0.175 2.631 0.175 3.684 1.579 2.456 3.86 2.456 10.701-0.702 14.21-1.579 1.579-3.684 2.982-5.965 3.684-8.070 2.807-16.491 4.21-24.911 5.088-7.193 0.702-14.385 0.175-20.701-4.035-7.193-4.737-14.035-10.175-21.052-15.263-5.088-3.684-6.316-8.772-4.737-14.561 1.228-4.21 2.631-8.596 7.017-9.824 9.473 8.947 19.999 15.087 32.104 18.771 0.702 1.579 1.403 3.158 2.105 5.088zM382.969 253.708c-0.351 0.526-0.351 0.526-0.526 0.702-0.351 0.351-0.877 0.877-1.228 1.228-7.719 7.368-9.298 15.964-5.614 25.789 1.228 3.333 2.982 6.666 4.561 9.824 0.877 1.754 1.053 3.333 0.877 5.263-0.526 5.965-1.228 11.929-1.403 18.070-0.351 10.877 0.526 21.929 2.281 32.63 0.877 6.14 1.579 12.105 0.175 18.42-1.053 4.561-1.403 9.298-2.281 14.21-4.386-0.351-8.421-0.702-12.28-1.053 0.175-2.281 0.702-4.21 0.702-6.14-0.175-53.858-0.351-107.716-0.526-161.749 0-1.403 0-2.982 0-4.737 0.702 0.526 0.877 0.702 1.053 0.877 2.281 9.649 4.386 19.473 4.737 29.473 0 2.281 0.351 4.561 1.053 6.666 1.053 3.509 4.21 5.088 7.544 5.965 0.351 1.403 0.526 2.982 0.877 4.561zM869.268 544.225c4.912-1.228 9.649-2.631 14.385-3.684 5.789-1.228 11.403-2.456 17.192-3.333 3.333-0.526 4.561 0.877 4.561 4.386 0 2.631-1.228 4.561-3.509 5.789-2.105 1.053-4.21 2.105-6.491 2.982-10 4.035-19.824 8.245-30.525 10.175-6.316 1.053-12.456 0.175-17.368-4.21-6.14-5.438-11.929-11.403-17.543-17.543-5.438-5.789-7.894-18.42 0.175-24.911 4.737 3.86 9.473 7.719 14.385 11.579 6.316 4.912 12.28 10.701 20.876 11.929 0.877 0.175 1.754 1.228 2.281 2.105 0.526 1.403 0.877 2.807 1.579 4.737zM412.793 491.069c-6.14-4.561-10.351-9.473-13.684-14.912-10.526-16.491-15.087-34.911-16.491-54.033-1.228-16.842 0-33.508 2.281-50.349 0-0.702 0.526-1.228 1.053-2.456 4.21 15.964 7.719 31.227 17.543 44.034-0.526 2.456-2.631 4.912-1.228 7.544 1.228 2.281 2.456 4.561 3.86 7.193-0.175 2.456-0.351 5.263-0.526 8.245-3.86 2.631-6.14 6.316-7.719 10.351-1.403 3.158-0.351 5.438 2.631 6.842 1.053 0.526 2.281 1.053 3.333 1.403 0.175 11.403 2.456 21.754 8.947 31.227 0.526 1.053 0 2.631 0 4.912zM532.087 473.35c-6.316-2.982-12.456-6.316-18.771-8.596-9.649-3.333-19.473-5.965-29.122-9.122-1.228-0.351-2.807-0.877-3.509-1.93-4.386-5.263-8.596-10.701-12.631-16.14-1.93-2.456-1.579-5.263-1.053-8.947 1.93 2.631 3.158 5.088 5.088 6.842 2.105 1.93 4.912 1.754 7.544 0.351 2.631-1.579 3.509-4.21 4.035-7.017 0.877 0 1.579-0.175 2.281-0.175 10.877 0 21.578 0 32.455 0 1.93 0 3.86 0.526 5.965 0.877-0.877 6.316 2.281 12.807-2.281 18.596-6.316-3.158-12.456-6.316-18.771-9.473-2.982 2.105-5.789 3.86-8.421 6.14-2.807 2.456-5.438 2.807-8.772 1.228-1.754-0.877-3.509-1.228-5.438-1.93 0 0.175 0 0.175-0.175 0.351 1.93 1.403 3.86 2.807 5.789 4.21-0.877 0.877-1.228 0.877-1.754 1.053-0.351 0-0.702 0.175-1.403 0.526 4.561 0.877 7.894 0 11.052-2.631 2.807-2.281 5.789-4.21 9.122-6.666 6.316 3.333 12.631 6.666 18.42 9.649 0.351 2.807 0.351 4.912 0.877 6.842 0.526 2.807 2.982 2.807 4.912 2.456 1.403 4.912 2.982 9.122 4.561 13.508zM920.846 457.561c0 1.228 0.175 1.93 0.175 2.631 0.175 7.193-3.158 12.28-10.877 13.508-8.596 1.228-17.192 3.158-25.964 4.737-2.982 0.526-5.789 0.175-8.421-1.403-5.965-3.509-11.929-6.666-17.894-10.175-2.105-1.228-3.684-3.333-5.263-5.263-0.702-0.877-0.877-2.456-0.702-3.509 1.93-6.14 5.614-10.877 11.929-13.157 1.93-0.702 3.509 0.175 5.088 1.228 1.228 0.877 0.877 1.93 0 2.631-1.754-0.175-3.509-0.526-5.088-0.702 7.368 3.684 14.561 7.719 21.227 12.982-0.877 1.053-1.754 1.93-2.631 2.982 1.93-0.175 3.509-0.351 5.263-0.702 3.158-0.526 6.316-0.702 9.473-1.403 5.088-1.228 10.351-2.631 15.438-4.035 2.456-1.053 5.263-1.228 8.245-0.351zM525.070 480.543c-10.877-4.035-21.929-7.544-33.332-9.473-11.228-2.105-22.806-2.982-35.087-2.631 3.333-3.86 6.491-6.316 10-8.245 2.105-1.053 2.631-2.456 2.631-4.737 0-3.333 0.351-6.842 0.526-10.877 2.982 3.509 5.438 6.491 7.719 9.473 1.754 2.456 4.035 3.509 6.842 4.21 8.772 2.105 17.543 4.21 25.438 9.298 5.614 3.684 11.403 7.193 15.263 12.982zM451.563 437.913c-4.912 3.509-8.421 7.894-11.403 12.807-2.807 4.912-5.438 9.824-8.421 15.614-0.351-3.684-0.526-6.666-0.877-9.473 6.316-4.386 6.666-4.561 3.158-10.526-3.333-5.789-2.281-11.228-0.175-16.666 11.052-0.877 26.666-0.702 30.174 0.351-0.877 4.737 0.175 9.122 4.386 12.28-1.053 1.579-1.579 3.158-2.631 4.21-3.333 3.333-4.737 3.158-7.719-0.351-1.93-2.807-4.21-5.438-6.491-8.245zM580.156 198.973c-7.017-8.245-6.666-17.192 1.053-21.403-0.526 2.105-0.877 3.684-1.228 5.438-0.175 1.228-0.526 2.456-0.175 3.684 0.702 3.86 3.86 6.666 7.894 7.017 4.386 0.351 7.719-1.403 9.298-5.438 0.702-1.93 1.228-3.86 2.105-6.316 2.105 4.21 1.93 7.894 0.526 11.403-1.754 4.912-5.965 7.017-10.701 8.421-2.631 8.947-5.088 17.719-7.719 26.666-3.158-0.877-5.789-1.579-8.772-2.456 2.631-9.122 5.088-17.894 7.719-27.017zM433.318 470.894c3.684-11.929 8.947-21.754 17.894-29.999 3.684 3.509 5.614 8.245 10.351 10.526 1.403-0.877 2.631-1.754 4.21-2.631-0.526 4.21-1.403 7.544-5.789 9.473-4.21 1.93-8.070 4.561-11.403 7.544-4.386 3.86-9.649 3.684-15.263 5.088zM535.771 263.884c-4.737 1.053-8.596-0.351-12.456-2.105-4.386-1.93-5.614-4.912-3.158-9.122 4.737-8.245 9.824-16.315 14.736-24.385 1.754 0.877 3.158 1.403 4.737 2.105-1.93 7.894-3.684 15.614-5.614 23.333-0.877 3.684-2.456 7.193 1.754 10.175zM559.104 255.463c-2.807-6.14-1.754-10.877 1.93-15.263 2.631-2.982 5.789-4.737 10-3.333 1.228 0.351 2.456 0.702 3.684 0.877 4.21 0.175 5.965 2.982 7.368 6.316 2.456 5.965 0.351 12.807-5.438 15.614 0.526-1.93 1.228-3.684 1.403-5.438 0.175-1.93 0.351-3.86-0.351-5.789-1.053-3.509-4.035-5.088-7.368-5.263-3.684-0.175-7.017 0.877-8.772 4.561-0.702 2.456-1.403 4.737-2.456 7.719zM561.033 173.009c-1.93 2.105-3.509 3.684-5.088 5.088-2.456 2.105-3.684 4.737-4.561 7.719-2.631 9.649-5.438 19.298-8.421 28.946-0.175 0.877-0.702 1.579-1.228 2.281-1.579-1.053-1.228-1.93-0.877-3.158 1.93-6.666 3.86-13.333 5.965-19.999 2.456-7.894 5.263-15.614 3.684-24.911 3.86 1.579 6.842 2.807 10.526 4.035zM510.86 678.782c3.158 0 7.544 4.035 7.719 7.193 0.175 1.93-1.228 2.982-3.158 2.807-2.807-0.175-6.666-3.86-7.193-6.666-0.351-2.105 0.702-3.333 2.631-3.333zM437.704 218.271c0-0.351-0.175-0.702-0.175-1.053 1.053-0.351 1.93-0.877 2.982-0.877 9.473 0 18.771 0 28.245 0 2.982 0 4.737 1.579 5.965 4.386-3.333-2.807-7.193-2.631-11.052-2.456-7.368 0-14.561 0-21.929 0-1.403 0-2.631 0-4.035 0zM413.495 685.097c0.175 2.281-1.053 3.333-3.333 2.982-2.631-0.351-5.438-3.684-5.614-6.491-0.175-2.281 1.053-3.333 3.333-2.982 2.456 0.526 5.438 4.035 5.614 6.491zM481.738 429.667c-1.754 4.737-3.684 6.14-6.842 5.789-2.631-0.351-4.386-2.281-4.737-5.965 3.684 0.175 7.544-1.754 11.579 0.175zM493.667 692.465c0 0.175 0 0.526 0 0.702-4.035 1.228-7.894 2.281-12.982 3.86 1.228-2.631 1.93-4.21 2.807-5.789 3.684 0.351 7.017 0.702 10.175 1.228zM906.109 451.070c1.754-1.754 2.807-2.807 4.21-4.21 0.175 2.982-0.526 4.386-4.21 4.21zM27.718-64c-1.579 0.526-2.982 1.228-4.561 1.754-4.386 1.403-7.193 2.982-10.877 6.14 1.403 1.228 2.456 0.702 3.684-0.175 3.86-3.158 8.070-5.263 12.982-6.316 0.526-0.175 0.877-0.877 1.228-1.403-0.702 0-1.579 0-2.456 0zM168.064 213.885c43.156 0.175 78.945-34.911 78.769-78.594-0.175-43.332-34.736-78.418-78.594-78.594-44.384-0.175-78.769 36.49-78.594 78.945 0.351 43.332 35.964 78.418 78.418 78.243zM128.768 84.241c0.175 0.175 0.351 0.351 0.526 0.526-0.877 0.877-1.754 1.93-2.631 2.807-6.14 5.438-11.052 11.929-14.736 19.298-6.316 12.28-7.894 24.911-2.456 38.069 5.263 12.807 14.385 21.227 27.894 24.21 6.842 1.403 13.684 2.456 20.701 1.228 5.965-1.053 12.28-1.228 18.245-2.281 10.526-1.93 18.245 5.263 16.842 15.964-1.403 9.824-7.193 15.614-16.14 18.245-8.947 2.807-18.070 2.281-27.017 0.526-15.263-2.982-28.069-10.175-37.543-22.455-11.403-14.736-17.368-31.227-13.684-50.174 3.333-16.842 11.052-31.052 24.385-41.928 1.754-1.579 3.684-2.807 5.614-4.035zM263.5 197.921c-3.333 4.561-6.316 9.473-10.175 13.684-5.263 5.789-11.228 10.877-17.368 16.666 1.754-1.053 3.158-1.754 4.386-2.631 22.631-14.561 38.244-34.56 47.016-59.998 1.93-5.614 4.737-10.701 6.666-16.315 3.684-10.175 5.088-20.876 4.561-31.753-0.526-11.929-3.158-23.508-8.245-34.385-7.894-17.192-19.648-30.876-35.437-41.227-8.245-5.438-16.666-10.877-25.262-15.614-11.579-6.316-24.21-9.824-37.543-11.228-25.964-2.982-49.998 2.281-72.454 15.438-0.702 0.351-1.403 0.877-2.105 1.403-0.175 0.175-0.175 0.351-0.526 1.053 28.771-13.684 57.893-15.789 87.716-5.789 23.333 7.719 42.806 23.157 55.261 40.7-5.263 1.93-10.351 3.86-16.14 5.965 1.579 1.754 2.631 2.982 3.684 4.035-0.526-1.053-0.877-2.105-1.579-3.684 5.263-1.754 10.175-3.509 15.614-5.438 0.702 1.053 1.403 1.93 2.105 2.807 0.526 0.702 1.228 1.228 1.754 1.93 12.28 14.736 19.999 31.402 22.28 50.7 2.982 25.087-3.158 47.718-18.596 67.717-1.228 1.93-3.509 3.86-5.614 5.965zM246.834 192.132c-0.877-1.93 0.526-3.158 1.403-4.386 7.017-10 12.105-21.052 14.736-32.981 5.263-23.157 2.807-45.437-8.245-66.664-0.526-1.053-1.403-1.93-2.281-2.807 1.754 4.035 3.509 8.245 5.263 12.28 5.263 13.157 7.193 26.841 6.316 40.7-1.228 18.596-7.193 35.788-18.245 51.051-0.351 0.526-0.526 0.877-1.053 1.754 0.702 0.175 1.403 0.526 2.105 1.053zM6.842 307.040c33.157 0 66.138 0 99.295 0 0 0 0-0.175 0-0.175-33.157 0-66.138 0-99.295 0 0 0 0 0.175 0 0.175zM165.433 296.689c-0.702-0.702-1.053-1.754-1.93-2.281-1.93-1.053-4.386-1.403-5.088-4.035 0 11.929 0 23.859 0 35.613 0 0 0.175 0 0.175 0 0.526-10.351 1.053-20.701 1.579-31.929 2.281 1.053 3.86 1.93 5.263 2.631 0.175 0 0 0 0 0zM215.958 318.268c-1.403-2.807-3.333-2.281-4.737-2.105-2.982 0.351-6.316-1.228-9.649 1.579 5.088 1.93 9.298 1.403 14.385 0.526zM198.59 306.163c1.403 2.105 1.403 2.105 11.579 1.93 1.754 0 4.21 1.053 5.438-1.579-3.158-1.053-12.105-1.228-17.017-0.351zM197.713 327.039c1.228 1.053 1.754 2.105 2.456 2.105 4.561 0.175 9.298 0.175 13.859 0 0.526 0 1.053-0.877 2.105-2.105-6.316 0-11.754 0-18.42 0zM215.782 338.618c-2.631-2.105-5.438-2.105-8.421-0.526 1.93 2.456 4.561 2.631 8.421 0.526zM250.869 283.707c0 4.386 0 8.421 0 12.28 1.403-2.807 1.403-8.596 0.526-12.631-3.86 0-7.719 0-11.403 0 0 0.175 0 0.175 0 0.351 3.333 0 7.017 0 10.877 0zM259.289 283.532c1.754 0 3.509 0 5.263 0s3.509 0 5.789 0c0 4.561 0 8.421 0 12.456 1.403-2.807 1.403-8.421 0.526-12.631-3.86 0.175-7.719 0.175-11.579 0.175 0 0 0 0 0 0zM137.539 323.004c-2.105-1.579-2.105-1.579-7.544 1.93 0 1.228 0.526 1.93 1.93 1.403 0.351-0.175 0.702-0.351 1.053-0.526 1.403-0.877 2.807-1.754 4.561-2.807zM139.644 286.69c1.579 2.631 2.631 4.737 4.035 7.017 0.702-0.702 1.754-1.403 1.579-1.579-1.053-1.93-2.105-3.86-3.509-5.614 0-0.351-0.877 0-2.105 0.175zM176.31 312.303c3.158 0 5.438 0 8.947 0-1.228-1.053-1.93-2.105-2.456-2.105-2.105 0.175-4.561-1.228-6.491 2.105zM129.82 297.567c2.105 1.93 4.21 3.684 7.368 3.684-1.754-3.333-4.912-4.912-7.368-3.684zM180.871 297.742c-2.456-1.579-6.491 0.526-7.193 3.684 2.982-0.175 4.912-2.281 7.193-3.684zM156.31 281.778c-3.158 2.281-1.93 4.737-1.93 6.842 0 0.351 1.053 0.877 1.93 1.579 0-2.982 0-5.263 0-8.421zM144.030 329.32c-3.86 5.614-3.86 5.614-2.281 7.894 1.403-2.281 2.631-4.386 3.86-6.491-0.526-0.526-0.877-0.877-1.579-1.403zM173.152 322.127c3.333 3.684 5.438 4.561 7.368 3.509-2.281-2.807-4.21-3.684-7.368-3.509zM133.855 312.127c-1.228-2.631-5.088-2.982-7.719-0.351 2.807 1.053 5.263 0.702 7.719 0.351zM170.871 335.986c-1.403-2.456-2.631-4.561-3.86-6.666-1.754 0.526-2.105 1.228-1.403 2.456 1.754 3.684 2.807 4.737 5.263 4.21zM169.468 285.462c-1.053 1.403-1.579 1.93-2.105 2.631-0.877 1.403-1.579 2.807-2.807 4.912 1.403 0 2.456 0.175 2.631-0.175 1.228-2.105 3.509-3.684 2.281-7.368zM154.556 333.706c0 2.105 0 4.386 0 6.842 2.105-1.053 2.281-1.579 2.105-5.088-0.175-1.228-0.351-2.281-2.105-1.754zM287.534 279.848c2.456 1.403 4.912 1.579 7.193 0-2.456 0-4.912 0-7.193 0zM248.237 279.848c-2.807 0-5.088 0-7.544 0 1.754 1.754 4.386 1.754 7.544 0zM260.517 279.848c2.281 1.579 4.561 1.579 6.842 0-2.281 0-4.561 0-6.842 0zM147.188 294.584c-3.158 1.228-5.438 3.333-6.842 6.491 2.281-2.105 4.386-4.386 6.842-6.491-0.175-0.175 0 0 0 0zM263.675 197.921c-3.158-1.053-6.14-2.281-9.298-3.333 2.982 1.053 6.14 2.281 9.298 3.333zM144.907 326.688c1.579 2.281 4.21 2.456 6.842 2.807-2.281-0.877-4.561-1.754-6.842-2.807v0zM165.959 326.864c-2.281 0.877-4.561 1.754-6.842 2.631 2.456 0 4.912-0.526 6.842-2.631v0zM165.608 296.689c1.579 1.403 3.333 2.807 4.737 4.21-0.702-2.281-2.105-3.509-4.737-4.21-0.175 0 0 0 0 0zM144.907 326.864c-1.403-1.579-2.982-3.158-4.561-4.912 0.877 2.456 1.579 3.333 4.561 4.912 0-0.175 0 0 0 0zM137.188 314.759c0-2.105 0-4.21 0-6.316-0.175 0-0.175 0-0.351 0 0 2.105 0 4.21 0 6.491 0.175-0.175 0.175-0.175 0.351-0.175zM165.784 326.688c2.105-0.351 2.982-1.93 3.684-3.86-1.228 1.403-2.456 2.631-3.684 3.86 0.175 0.175 0 0 0 0zM174.029 314.057c0-1.579 0-3.158 0-4.737-0.175 0-0.351 0-0.526 0 0 1.579 0 3.158 0 4.737 0.175-0.175 0.351 0 0.526 0zM147.013 294.409c1.579-0.175 2.982-0.351 4.561-0.526 0-0.351-0.175-0.526-0.175-0.877-1.403 0.526-2.807 1.053-4.386 1.403 0.175 0.175 0 0 0 0zM251.746 193.71c-1.754-0.526-3.333-1.053-5.088-1.754 1.754 0.526 3.333 1.228 5.088 1.754zM252.623 85.118c-0.877-1.579-1.754-3.158-2.631-4.737 0.877 1.754 1.754 3.158 2.631 4.737zM260.693-24.703c1.754 1.93 8.421 2.456 17.368 1.754 1.053 0 2.456 0.175 2.281-1.579-2.807-0.877-14.912-1.053-19.648-0.175zM216.659-62.421c0 12.807 0 25.613 0 38.595 1.053-2.982 1.228-34.385 0-38.595zM628.4 629.31c-1.754-0.702-3.158-1.228-5.438-2.105 10.526 13.508 14.035 27.367 7.719 42.63 0.175 0.351 0.175 0.526 0.351 0.526 0.877-0.702 1.754-1.403 2.456-2.105 0.175 0.175 0.526 0.351 0.526 0.526 1.228 4.912 2.105 9.824 3.509 14.561 1.053 3.333 2.281 6.666 4.035 9.649 1.93 3.333 4.386 3.333 7.368 0.877 2.456-2.281 3.684-5.263 4.561-8.245 2.105-8.070 2.807-16.491 2.456-24.911-0.351-10.877-2.807-21.052-7.894-30.525-1.754-3.333-4.21-6.316-6.666-8.947-2.807-2.982-5.263-2.982-8.245 0-1.053 1.053-1.93 2.456-2.631 3.684-0.877 1.228-1.403 2.631-2.105 4.386zM419.986 591.767c-0.526 1.053-0.877 2.105-1.579 3.509 9.473-4.912 18.070-3.158 27.017 1.228-1.579-1.579-3.158-3.333-4.737-5.088 4.21-1.754 8.596-1.93 12.982-2.105 6.842-0.175 12.982-2.105 17.543-7.544 1.754-2.281 4.035-4.561 2.631-8.245-1.228-0.175-2.807-0.702-4.21-0.702-4.21-0.175-8.421-0.175-12.631-0.175-6.491-0.175-13.157-0.526-19.648-0.877-4.737-0.351-8.772 1.403-11.929 4.912-2.456 2.807-4.912 5.614-7.017 8.947-1.754 2.807-1.403 3.684 1.579 6.14zM536.648 558.084c-4.035-1.053-7.719-1.053-10.351-2.807-2.456-1.754-3.509-5.263-5.263-7.894-4.386-6.14-9.298-11.754-15.087-16.842-5.614-4.912-12.28-7.193-19.473-7.544-6.842-0.351-13.684-0.702-20.526-0.702-12.807 0.175-25.789 0.526-38.946 0.877 0.877 0.702 1.403 1.228 2.281 1.754-7.544 7.894-12.28 17.368-17.017 27.192-2.281 0.702-4.912 1.403-7.368 2.105-0.702-1.053-1.228-2.105-1.93-2.982-2.281 4.561-1.93 6.666 1.053 9.473 2.631-0.175 1.403-2.631 2.281-4.035 7.017-2.456 14.21-3.509 21.578-4.386 4.035-0.526 8.070-1.053 12.105-1.053 6.666 0.175 13.333 1.053 19.999 1.579 5.789 0.351 11.754 0.526 17.543 1.053 10.701 0.877 21.403 1.754 32.104 2.456 9.473 0.702 14.736 2.456 24.034 9.298-0.526 0.702-1.053 1.403-1.579 2.281 0.526 0.175 1.053 0.351 1.228 0.351 4.035-1.228 6.842-4.035 9.122-7.544 1.053-1.579 1.228-3.158-0.526-4.386-1.579-1.228-2.982-1.053-4.737 0.702-0.175 0.526-0.351 0.877-0.526 1.053zM415.073 551.593c0-0.526-0.175-0.702-0.175-1.053 3.684-8.421 8.070-16.315 14.21-23.157 1.579-1.754 3.509-2.982 6.14-2.982 7.017-0.175 14.035-0.351 20.876-0.526 2.807 0 5.614-0.351 8.421-0.175 8.421 0.351 16.842 0.526 25.087 1.053 4.386 0.351 8.421 1.93 11.929 4.561 8.245 6.14 14.736 13.684 20.175 22.28 0.526 0.877 0.702 1.93 1.228 3.333-35.964-4.912-71.927-4.561-107.891-3.333zM475.773 511.419c-2.631-1.228-5.088-2.807-7.719-3.684-8.245-2.456-16.666-3.333-25.262-1.579-3.509 0.702-6.491 2.281-8.245 5.789 1.403 1.754 3.158 1.754 5.088 1.754 10.877 0 21.578-0.175 32.455-0.175 1.228 0 2.281-0.351 3.509-0.526 0-0.526 0.175-1.053 0.175-1.579zM463.844 604.223c-6.316-0.351-6.491-0.351-12.456-4.386 1.93 4.912 6.491 6.666 12.456 4.386zM427.003 656.852c2.281 1.579 4.386 3.158 6.842 4.737 0-3.86 0-3.86-6.842-4.737zM696.818 455.105c-3.684-10.526-3.333-21.227-1.228-32.806-5.614 10-5.438 23.859 1.228 32.806zM874.531 531.594c4.561-3.158 4.737-7.544 4.035-12.105-1.228 3.86-2.631 7.544-4.035 12.105zM882.25 491.42c-1.053 3.86-1.93 7.894-2.982 11.929 3.509-3.509 4.561-6.666 2.982-11.929zM863.479 558.61c4.21-2.281 5.614-5.789 5.263-11.228-1.93 4.21-3.509 7.719-5.263 11.228zM886.636 473.175c0-1.228 0.175-2.281 0.175-3.509-0.175 0-0.526 0-0.702 0 0 1.228-0.175 2.281-0.175 3.509 0.175 0 0.351 0 0.702 0zM487.527 541.242c1.053-1.228 1.754-2.105 2.456-3.158 2.105 0.877 4.21 1.579 6.842 2.631-1.93-3.509-4.386-5.789-7.894-7.017-0.526 1.053-0.877 2.105-1.403 3.509-1.403-0.702-2.807-1.228-3.333-1.403-2.631 0.526-4.561 1.403-6.491 1.403-11.929 0.175-23.859 0.175-35.788 0.351-0.702 0-1.579 0-2.281 0.526 12.982 0.351 25.964 0.702 38.946 0.877 1.403 0 2.807-0.175 4.035-0.526 2.105-0.526 3.509 0.526 4.912 2.807z" />
<glyph unicode="&#xe902;" glyph-name="neumeister" data-tags="neumeister" horiz-adv-x="796" d="M492.413 181.657c2.563 7.322 95.554 22.699 108.734 10.617 6.956-6.59-4.393-11.715-9.153-57.113 38.075 44.299 73.221 95.188 103.608 151.202 145.71 268.356 130.7 557.946-33.682 647.642-164.382 88.964-415.897-56.014-561.607-324.37s-130.7-557.946 33.682-647.642c39.54-21.6 83.838-29.289 130.7-25.261 34.414 236.871-10.617 243.461 1.831 255.176 13.18 12.082 106.171-3.295 108.734-10.617 2.197-5.858-9.153-110.198-25.261-225.156 51.987 19.038 105.073 50.157 155.595 92.625-9.519 73.587-14.644 128.503-13.18 132.897zM485.091 471.614c-0.732-1.098-13.546-2.563-19.038-3.295l-2.563-2.563c2.929-2.197 9.519-7.322 8.42-8.42s-13.912-2.563-19.038-3.295l-2.197-2.563c2.929-2.197 9.519-7.688 8.42-8.42-1.098-1.098-13.912-2.563-19.038-3.295l-2.197-2.563c2.563-2.197 9.519-7.688 8.42-8.787s-14.278-2.563-19.038-3.295l-2.197-2.563c2.563-2.197 9.519-7.688 8.42-8.787s-14.278-2.563-19.038-3.295l-2.197-2.197c2.563-2.197 9.153-7.688 8.42-8.787-1.098-1.098-14.644-2.563-19.404-3.295l-2.197-2.197c2.197-1.831 9.153-8.054 8.42-9.153-1.098-1.098-15.010-2.929-19.404-3.295v0l-1.831-2.197c2.197-1.831 9.153-8.054 8.42-9.153-1.098-1.098-15.010-2.563-19.404-3.295v0l-10.251-35.512-5.858-25.261c0 0-13.18-92.625-9.153-98.849 2.197-3.661 9.519-7.322 15.376-12.082-21.6 5.858-72.123 12.082-92.991 7.688 5.125 42.834 25.261 153.399 28.556 161.087 4.393 9.153 35.146 50.157 35.146 50.157l150.836 181.589c-19.404 31.485-57.479 82.008-72.489 99.947-18.671 22.699-42.834 62.238-46.129 80.177-3.295 17.573 4.027 31.485 7.688 31.485 3.661 0.366 40.272-30.753 40.272-30.753s0 0 0-0.366l2.563 0.366-2.197-3.295c0.366-1.098 0.366-2.563 0.732-4.027l5.858-0.732-4.027-6.224c0.366-1.098 0.732-1.831 1.098-2.929l6.59-0.732-3.661-7.322c0.366-0.366 0.366-1.098 0.732-1.464l7.688 0.366-4.027-6.956c0.366-0.366 0.732-1.098 1.098-1.464l7.322 1.464c0 0-1.098-5.492-1.464-7.322 0.366-0.366 0.732-0.732 1.464-1.098 15.376-9.885 54.916-4.759 54.916-4.759l28.19-21.234c0 0 11.715-19.404 24.895-43.201l5.125 5.858c0 0 24.529 21.234 18.671 36.611s-38.441 16.109-38.441 16.109l-25.627 23.065c0 0-4.393 35.512-23.431 47.594l-5.125-4.393-1.831 7.688c-0.732 0.366-1.464 0.366-2.197 0.732l-5.492-5.492-4.027 7.688c-0.366 0-1.098 0.366-1.464 0.366l-5.125-7.322-3.295 8.054c-0.366 0-1.098 0-1.464 0l-5.125-5.858-2.929 5.492c-2.197 0-4.027-0.366-5.125-0.732l-1.098-2.563-1.098 2.197c0 0-0.366 0-0.366 0l-38.807 31.119c0 0 2.563 10.251 9.153 10.251 6.224-0.366 144.246-10.251 210.145-75.784s-16.109-143.514-16.109-143.514l-20.136-23.797c2.197-5.125 4.027-9.519 4.393-12.448 5.492-25.627 1.464-280.072-0.366-382.215-24.163 0.732-61.872-4.759-80.543-9.885 0.366 64.435 0.366 212.342-1.464 304.235-3.295-0.366-6.956-1.098-9.519-1.464l-2.563-2.929c2.929-2.197 9.519-7.322 8.42-8.054-0.732-1.098-13.18-2.563-19.038-3.295l-2.563-2.929c3.661-2.197 10.251-7.322 9.519-8.42zM571.126 527.628c0-6.875-5.573-12.448-12.448-12.448s-12.448 5.573-12.448 12.448c0 6.875 5.573 12.448 12.448 12.448s12.448-5.573 12.448-12.448z" />
<glyph unicode="&#xe903;" glyph-name="bitbucket" data-tags="bitbucket" horiz-adv-x="805" d="M465.714 469.143q4.571-36-28.857-57.714t-63.714-3.429q-22.286 9.714-30.571 33.143t-0.286 46.857 29.714 33.143q20.571 10.286 41.429 6.857t36.571-20.286 15.714-38.571zM529.143 481.143q-8 61.143-64.571 93.714t-112.571 7.429q-36-16-57.429-50.571t-19.714-74q2.286-52 44.286-88.571t94.571-32q52 4.571 86.857 48t28.571 96zM665.714 790.857q-11.429 15.429-32 25.429t-33.143 12.571-40.571 7.143q-166.286 26.857-323.429-1.143-24.571-4-37.714-6.857t-31.429-12.571-28.571-24.571q17.143-16 43.429-26t42-12.571 50-6.571q130.286-16.571 256-0.571 36 4.571 51.143 6.857t41.429 12.286 42.857 26.571zM698.286 199.429q-4.571-14.857-8.857-43.714t-8-48-16.286-40-33.143-32.286q-49.143-27.429-108.286-40.857t-115.429-12.571-115.143 10.571q-26.286 4.571-46.571 10.286t-43.714 15.429-41.714 24.857-29.714 35.143q-14.286 54.857-32.571 166.857l3.429 9.143 10.286 5.143q127.429-84.571 289.429-84.571t290 84.571q12-3.429 13.714-13.143t-2.857-25.714-4.571-21.143zM801.714 748.571q-14.857-95.429-63.429-374.286-2.857-17.143-15.429-32t-24.857-22.857-31.143-17.714q-144-72-348.571-50.286-141.714 15.429-225.143 79.429-8.571 6.857-14.571 15.143t-9.714 20-5.143 19.429-3.429 22.571-3.143 20q-5.143 28.571-15.143 85.714t-16 92.286-13.429 84.286-12.571 90.286q1.714 14.857 10 27.714t18 21.429 25.714 17.143 26.286 12.857 27.429 10.571q71.429 26.286 178.857 36.571 216.571 21.143 386.286-28.571 88.571-26.286 122.857-69.714 9.143-11.429 9.429-29.143t-3.143-30.857z" />
<glyph unicode="&#xe904;" glyph-name="image" data-tags="image, picture, photo, graphic" d="M959.884 832c0.040-0.034 0.082-0.076 0.116-0.116v-767.77c-0.034-0.040-0.076-0.082-0.116-0.116h-895.77c-0.040 0.034-0.082 0.076-0.114 0.116v767.772c0.034 0.040 0.076 0.082 0.114 0.114h895.77zM960 896h-896c-35.2 0-64-28.8-64-64v-768c0-35.2 28.8-64 64-64h896c35.2 0 64 28.8 64 64v768c0 35.2-28.8 64-64 64v0zM832 672c0-53.020-42.98-96-96-96s-96 42.98-96 96 42.98 96 96 96 96-42.98 96-96zM896 128h-768v128l224 384 256-320h64l224 192z" />
<glyph unicode="&#xe905;" glyph-name="music" data-tags="music, song, audio, sound, note" d="M960 960h64v-736c0-88.366-100.29-160-224-160s-224 71.634-224 160c0 88.368 100.29 160 224 160 62.684 0 119.342-18.4 160-48.040v368.040l-512-113.778v-494.222c0-88.366-100.288-160-224-160s-224 71.634-224 160c0 88.368 100.288 160 224 160 62.684 0 119.342-18.4 160-48.040v624.040l576 128z" />
<glyph unicode="&#xe906;" glyph-name="book" data-tags="book, read, reading" d="M896 832v-832h-672c-53.026 0-96 42.98-96 96s42.974 96 96 96h608v768h-640c-70.398 0-128-57.6-128-128v-768c0-70.4 57.602-128 128-128h768v896h-64zM224.056 128v0c-0.018-0.002-0.038 0-0.056 0-17.672 0-32-14.326-32-32s14.328-32 32-32c0.018 0 0.038 0.002 0.056 0.002v-0.002h607.89v64h-607.89z" />
<glyph unicode="&#xe907;" glyph-name="location" data-tags="location, map-marker, pin" d="M512 960c-176.732 0-320-143.268-320-320 0-320 320-704 320-704s320 384 320 704c0 176.732-143.27 320-320 320zM512 448c-106.040 0-192 85.96-192 192s85.96 192 192 192 192-85.96 192-192-85.96-192-192-192z" />
<glyph unicode="&#xe908;" glyph-name="display" data-tags="display, screen, monitor, computer, desktop, pc" d="M0 896v-640h1024v640h-1024zM960 320h-896v512h896v-512zM672 192h-320l-32-128-64-64h512l-64 64z" />
<glyph unicode="&#xe909;" glyph-name="laptop" data-tags="laptop, computer, pc" d="M896 256v512c0 35.2-28.8 64-64 64h-640c-35.2 0-64-28.8-64-64v-512h-128v-192h1024v192h-128zM640 128h-256v64h256v-64zM832 256h-640v511.886c0.034 0.040 0.076 0.082 0.114 0.114h639.77c0.040-0.034 0.082-0.076 0.116-0.116v-511.884z" />
<glyph unicode="&#xe90a;" glyph-name="mobile" data-tags="mobile, cell-phone, handheld" d="M736 960h-448c-52.8 0-96-43.2-96-96v-832c0-52.8 43.2-96 96-96h448c52.8 0 96 43.2 96 96v832c0 52.8-43.2 96-96 96zM384 912h256v-32h-256v32zM512 0c-35.346 0-64 28.654-64 64s28.654 64 64 64 64-28.654 64-64-28.654-64-64-64zM768 192h-512v640h512v-640z" />
<glyph unicode="&#xe90b;" glyph-name="mobile2" data-tags="mobile, cell-phone, handheld, tablet, phablet" d="M768 960h-576c-35.2 0-64-28.798-64-64v-896c0-35.2 28.798-64 64-64h576c35.2 0 64 28.8 64 64v896c0 35.202-28.8 64-64 64zM480-17.782c-27.492 0-49.782 22.29-49.782 49.782s22.29 49.782 49.782 49.782 49.782-22.29 49.782-49.782-22.29-49.782-49.782-49.782zM768 128h-576v704h576v-704z" />
<glyph unicode="&#xe90c;" glyph-name="tablet" data-tags="tablet, mobile" d="M800 960h-640c-52.8 0-96-43.2-96-96v-832c0-52.8 43.2-96 96-96h640c52.8 0 96 43.2 96 96v832c0 52.8-43.2 96-96 96zM480-32c-17.672 0-32 14.326-32 32s14.328 32 32 32 32-14.326 32-32-14.328-32-32-32zM768 64h-576v768h576v-768z" />
<glyph unicode="&#xe90d;" glyph-name="spades" data-tags="spades, cards, poker" d="M817.57 611.85c-193.566 143.858-260.266 259.018-305.566 348.148v0c-0.004 0-0.004 0.002-0.004 0.002v-0.002c-45.296-89.13-112-204.292-305.566-348.148-330.036-245.286-19.376-587.668 253.758-399.224-17.796-116.93-78.53-202.172-140.208-238.882v-37.744h384.032v37.74c-61.682 36.708-122.41 121.954-140.212 238.884 273.136-188.446 583.8 153.94 253.766 399.226z" />
<glyph unicode="&#xe90e;" glyph-name="equalizer" data-tags="equalizer, sliders, settings, preferences, dashboard, control" d="M448 832v16c0 26.4-21.6 48-48 48h-160c-26.4 0-48-21.6-48-48v-16h-192v-128h192v-16c0-26.4 21.6-48 48-48h160c26.4 0 48 21.6 48 48v16h576v128h-576zM256 704v128h128v-128h-128zM832 528c0 26.4-21.6 48-48 48h-160c-26.4 0-48-21.6-48-48v-16h-576v-128h576v-16c0-26.4 21.6-48 48-48h160c26.4 0 48 21.6 48 48v16h192v128h-192v16zM640 384v128h128v-128h-128zM448 208c0 26.4-21.6 48-48 48h-160c-26.4 0-48-21.6-48-48v-16h-192v-128h192v-16c0-26.4 21.6-48 48-48h160c26.4 0 48 21.6 48 48v16h576v128h-576v16zM256 64v128h128v-128h-128z" />
<glyph unicode="&#xe90f;" glyph-name="cog" data-tags="cog, gear, preferences, settings, generate, control, options" d="M933.79 349.75c-53.726 93.054-21.416 212.304 72.152 266.488l-100.626 174.292c-28.75-16.854-62.176-26.518-97.846-26.518-107.536 0-194.708 87.746-194.708 195.99h-201.258c0.266-33.41-8.074-67.282-25.958-98.252-53.724-93.056-173.156-124.702-266.862-70.758l-100.624-174.292c28.97-16.472 54.050-40.588 71.886-71.478 53.638-92.908 21.512-211.92-71.708-266.224l100.626-174.292c28.65 16.696 61.916 26.254 97.4 26.254 107.196 0 194.144-87.192 194.7-194.958h201.254c-0.086 33.074 8.272 66.57 25.966 97.218 53.636 92.906 172.776 124.594 266.414 71.012l100.626 174.29c-28.78 16.466-53.692 40.498-71.434 71.228zM512 240.668c-114.508 0-207.336 92.824-207.336 207.334 0 114.508 92.826 207.334 207.336 207.334 114.508 0 207.332-92.826 207.332-207.334-0.002-114.51-92.824-207.334-207.332-207.334z" />
<glyph unicode="&#xe910;" glyph-name="mug" data-tags="mug, drink, glass, beverage" d="M960 640h-192v96c0 88.366-171.922 160-384 160s-384-71.634-384-160v-640c0-88.366 171.922-160 384-160s384 71.634 384 160v96h192c35.346 0 64 28.654 64 64v320c0 35.346-28.654 64-64 64zM176.056 701.602c-36.994 12.19-59.408 25.246-71.41 34.398 12.004 9.152 34.416 22.208 71.41 34.398 57.942 19.090 131.79 29.602 207.944 29.602s150.004-10.512 207.944-29.602c36.994-12.188 59.408-25.246 71.41-34.398-12.002-9.152-34.416-22.208-71.41-34.398-57.94-19.090-131.79-29.602-207.944-29.602s-150.002 10.512-207.944 29.602zM896 320h-128v192h128v-192z" />
<glyph unicode="&#xe911;" glyph-name="clipboard" data-tags="clipboard, board, signup, register, agreement" d="M928 832h-288c0 70.692-57.306 128-128 128-70.692 0-128-57.308-128-128h-288c-17.672 0-32-14.328-32-32v-832c0-17.674 14.328-32 32-32h832c17.674 0 32 14.326 32 32v832c0 17.672-14.326 32-32 32zM512 896c35.346 0 64-28.654 64-64s-28.654-64-64-64c-35.346 0-64 28.654-64 64s28.654 64 64 64zM896 0h-768v768h128v-96c0-17.672 14.328-32 32-32h448c17.674 0 32 14.328 32 32v96h128v-768zM448 101.49l-205.254 237.254 58.508 58.51 146.746-114.744 274.742 242.744 58.514-58.508z" />
<glyph unicode="&#xe912;" glyph-name="earth" data-tags="earth, globe, language, web, internet, sphere, planet" d="M512 960c-282.77 0-512-229.23-512-512s229.23-512 512-512 512 229.23 512 512-229.23 512-512 512zM512-0.002c-62.958 0-122.872 13.012-177.23 36.452l233.148 262.29c5.206 5.858 8.082 13.422 8.082 21.26v96c0 17.674-14.326 32-32 32-112.99 0-232.204 117.462-233.374 118.626-6 6.002-14.14 9.374-22.626 9.374h-128c-17.672 0-32-14.328-32-32v-192c0-12.122 6.848-23.202 17.69-28.622l110.31-55.156v-187.886c-116.052 80.956-192 215.432-192 367.664 0 68.714 15.49 133.806 43.138 192h116.862c8.488 0 16.626 3.372 22.628 9.372l128 128c6 6.002 9.372 14.14 9.372 22.628v77.412c40.562 12.074 83.518 18.588 128 18.588 70.406 0 137.004-16.26 196.282-45.2-4.144-3.502-8.176-7.164-12.046-11.036-36.266-36.264-56.236-84.478-56.236-135.764s19.97-99.5 56.236-135.764c36.434-36.432 85.218-56.264 135.634-56.26 3.166 0 6.342 0.080 9.518 0.236 13.814-51.802 38.752-186.656-8.404-372.334-0.444-1.744-0.696-3.488-0.842-5.224-81.324-83.080-194.7-134.656-320.142-134.656z" />
<glyph unicode="&#xe913;" glyph-name="embed2" data-tags="embed, code, html, xml" d="M576 224l96-96 320 320-320 320-96-96 224-224zM448 672l-96 96-320-320 320-320 96 96-224 224z" />
<glyph unicode="&#xe914;" glyph-name="embed22" data-tags="embed, code, html, xml" horiz-adv-x="1280" d="M832 224l96-96 320 320-320 320-96-96 224-224zM448 672l-96 96-320-320 320-320 96 96-224 224zM701.298 809.481l69.468-18.944-191.987-704.026-69.468 18.944 191.987 704.026z" />
<glyph unicode="&#xe915;" glyph-name="terminal" data-tags="terminal, console, cmd, command-line" d="M0 896v-896h1024v896h-1024zM960 64h-896v768h896v-768zM896 768h-768v-640h768v640zM448 448h-64v-64h-64v-64h-64v64h64v64h64v64h-64v64h-64v64h64v-64h64v-64h64v-64zM704 320h-192v64h192v-64z" />
<glyph unicode="&#xe916;" glyph-name="xing2" data-tags="xing, brand, social" d="M155.6 757.8c-8.8 0-16.4-3.2-20.2-9.2-3.8-6.4-3.2-14.4 0.8-22.6l99.8-172.8c0.2-0.4 0.2-0.6 0-0.8l-156.8-277.2c-4-8.2-3.8-16.4 0-22.6 3.8-6 10.4-10 19.2-10h147.6c22 0 32.8 15 40.2 28.6 0 0 153.4 271.4 159.4 282-0.6 1-101.6 177-101.6 177-7.4 13-18.4 27.6-41.2 27.6h-147.2zM776 960c-22 0-31.6-13.8-39.6-28.2 0 0-318.2-564.2-328.6-582.8 0.6-1 209.8-385 209.8-385 7.4-13 18.6-28.2 41.2-28.2h147.6c8.8 0 15.8 3.4 19.6 9.4 4 6.4 3.8 14.6-0.4 22.8l-208 380.6c-0.2 0.4-0.2 0.6 0 1l327 578.2c4 8.2 4.2 16.4 0.4 22.8-3.8 6-10.8 9.4-19.6 9.4h-149.4z" />
<glyph unicode="&#xe917;" glyph-name="yl-black" data-tags="ozan_networks_yl-black" d="M511.859 951.664c-278.211 0-503.745-225.534-503.745-503.745 0-278.21 225.534-503.745 503.745-503.745s503.745 225.535 503.745 503.745c0.001 278.211-225.534 503.745-503.745 503.745zM548.749 554.691l-82.426-115.591v-269.032h-68.008l0.002 269.032-187.578 263.056h82.206l139.75-195.051 116.055 161.981v-114.395zM780.218 170.069h-221.724v532.087h67.255v-467.072h154.471v-65.015z" />
<glyph unicode="&#xe918;" glyph-name="php" data-tags="logo.php" horiz-adv-x="2048" d="M161.685 744.555h303.019c88.945-0.755 153.393-26.383 193.344-76.885 39.949-50.503 53.14-119.474 39.573-206.912-5.277-39.951-16.961-79.147-35.051-117.589-17.338-38.443-41.459-73.117-72.363-104.021-37.69-39.196-78.017-64.071-120.981-74.624-42.966-10.553-87.439-15.829-133.419-15.829h-135.68l-42.965-214.827h-157.163l161.685 810.688zM293.973 615.659l-67.84-339.2c4.522-0.753 9.045-1.131 13.568-1.131 5.276 0 10.553 0 15.829 0 72.362-0.753 132.664 6.407 180.907 21.483 48.241 15.829 80.654 70.855 97.237 165.077 13.567 79.146-0.001 124.75-40.704 136.811-39.951 12.060-90.077 17.713-150.379 16.96-9.046-0.753-17.714-1.131-26.005-1.131-7.538 0-15.453 0-23.744 0l1.131 1.131zM876.65 960.512h156.032l-44.096-215.957h140.203c76.885-1.508 134.172-17.337 171.861-47.488 38.442-30.152 49.749-87.439 33.92-171.861l-75.754-376.512h-158.293l72.363 359.552c7.537 37.689 5.276 64.448-6.784 80.277s-38.066 23.744-78.016 23.744l-125.504 1.131-92.715-464.704h-156.031l162.815 811.819zM1502.123 744.555h303.019c88.945-0.755 153.393-26.383 193.344-76.885 39.949-50.503 53.14-119.474 39.573-206.912-5.277-39.951-16.961-79.147-35.051-117.589-17.338-38.443-41.459-73.117-72.363-104.021-37.689-39.196-78.017-64.071-120.981-74.624-42.966-10.553-87.439-15.829-133.419-15.829h-135.68l-42.965-214.827h-157.162l161.686 810.688zM1634.41 615.659l-67.84-339.2c4.522-0.753 9.045-1.131 13.568-1.131 5.276 0 10.553 0 15.829 0 72.362-0.753 132.665 6.407 180.907 21.483 48.241 15.829 80.654 70.855 97.237 165.077 13.567 79.146-0.001 124.75-40.704 136.811-39.951 12.060-90.077 17.713-150.379 16.96-9.046-0.753-17.714-1.131-26.005-1.131-7.538 0-15.453 0-23.744 0l1.131 1.131z" />
<glyph unicode="&#xe919;" glyph-name="touch-app" data-tags="touch_app" d="M804 260.667q38-18 38-58v-8l-32-226q-2-24-20-39t-42-15h-290q-26 0-44 18l-212 212 34 34q14 14 34 14 2 0 5-1t5-1l146-30v458q0 28 19 46t45 18 45-18 19-46v-256h34q6 0 22-4zM384 458.667q-86 56-86 160 0 80 56 136t136 56 136-56 56-136q0-106-84-160v160q0 44-32 75t-76 31-75-31-31-75v-160z" />
<glyph unicode="&#xe91a;" glyph-name="js" data-tags="Unofficial_JavaScript_logo_2" d="M634.637 302.722c31.298-51.102 72.017-88.665 144.034-88.665 60.499 0 99.147 30.237 99.147 72.017 0 50.067-39.708 67.8-106.299 96.927l-36.502 15.661c-105.362 44.887-175.356 101.12-175.356 219.997 0 109.505 83.436 192.867 213.831 192.867 92.833 0 159.572-32.309 207.665-116.904l-113.698-73.004c-25.033 44.887-52.040 62.571-93.967 62.571-42.766 0-69.871-27.13-69.871-62.571 0-43.802 27.13-61.535 89.775-88.665l36.502-15.637c124.057-53.199 194.101-107.434 194.101-229.369 0-131.456-103.265-203.473-241.947-203.473-135.599 0-223.203 64.618-266.068 149.312l118.655 68.934zM118.853 290.069c22.937-40.695 43.802-75.1 93.967-75.1 47.97 0 78.232 18.769 78.232 91.748v496.473h146.007v-498.446c0-151.186-88.64-219.997-218.024-219.997-116.904 0-184.605 60.499-219.035 133.367l118.853 71.955z" />
<glyph unicode="&#xe91b;" glyph-name="java" data-tags="Java-Logo" d="M378.323 168.364c0 0-39.326-23.937 27.356-30.778 80.362-10.257 123.107-8.551 212.016 8.548 0 0 23.937-15.389 56.425-27.356-200.046-85.49-453.101 5.132-295.797 49.587v0zM352.676 279.501c0 0-42.745-32.485 23.937-39.326 87.2-8.551 155.595-10.257 273.57 13.68 0 0 15.389-17.099 41.036-25.646-241.082-71.814-511.236-6.838-338.542 51.293v0zM824.586 84.583c0 0 29.066-23.937-32.488-42.745-114.559-34.197-480.461-44.455-583.050 0-35.907 15.386 32.488 37.617 54.715 41.036 22.227 5.129 34.197 5.129 34.197 5.129-39.323 27.356-261.6-56.425-112.846-80.362 408.643-66.682 745.479 29.069 639.471 76.943v0zM397.131 395.77c0 0-186.37-44.455-66.682-59.844 51.293-6.838 152.172-5.129 246.214 1.71 76.943 6.838 153.885 20.518 153.885 20.518s-27.356-11.967-46.168-23.937c-189.789-49.583-553.981-27.356-449.682 23.937 88.909 42.748 162.43 37.617 162.433 37.617v0zM730.548 209.4c191.499 99.17 102.589 194.918 41.036 182.951-15.389-3.419-22.227-6.838-22.227-6.838s5.129 10.261 17.099 13.68c121.397 42.745 217.148-128.236-39.323-194.918-0.003-0.003 1.703 1.706 3.416 5.125v0zM415.939-60.751c184.66-11.97 466.781 6.838 473.619 94.038 0 0-13.676-34.197-152.172-59.844-157.304-29.069-352.222-25.646-466.781-6.838 0 0 23.937-20.518 145.334-27.356v0zM513.4 397.482c-37.617 85.49-165.852 160.723 0 292.378 206.888 162.433 100.88 270.151 100.88 270.151v0c42.745-169.271-150.463-220.564-220.567-326.575-47.874-71.814 22.227-148.757 119.688-235.953zM559.564 469.293v0c49.583-56.425-13.68-107.718-13.68-107.718s126.526 64.973 68.392 145.334c-53.006 76.943-94.041 114.556 128.236 242.795 0.003-0.003-350.509-87.203-182.947-280.411z" />
<glyph unicode="&#xe91c;" glyph-name="google" data-tags="google, brand" d="M522.2 521.2v-175.6h290.4c-11.8-75.4-87.8-220.8-290.4-220.8-174.8 0-317.4 144.8-317.4 323.2s142.6 323.2 317.4 323.2c99.4 0 166-42.4 204-79l139 133.8c-89.2 83.6-204.8 134-343 134-283 0-512-229-512-512s229-512 512-512c295.4 0 491.6 207.8 491.6 500.2 0 33.6-3.6 59.2-8 84.8l-483.6 0.2z" />
<glyph unicode="&#xe91d;" glyph-name="google-plus3" data-tags="google-plus, brand, social" d="M512 960c-282.8 0-512-229.2-512-512s229.2-512 512-512 512 229.2 512 512-229.2 512-512 512zM384 192c-141.6 0-256 114.4-256 256s114.4 256 256 256c69.2 0 127-25.2 171.6-67l-69.6-66.8c-19 18.2-52.2 39.4-102 39.4-87.4 0-158.8-72.4-158.8-161.6s71.4-161.6 158.8-161.6c101.4 0 139.4 72.8 145.2 110.4h-145.2v87.8h241.8c2.2-12.8 4-25.6 4-42.4 0-146.4-98-250.2-245.8-250.2zM832 448v-64h-64v64h-64v64h64v64h64v-64h64v-64h-64z" />
<glyph unicode="&#xe91e;" glyph-name="planesium" data-tags="planesium" d="M509.67-73.143c-9.547 0.041-19.231 0.354-28.784 0.925l0.568 9.498c9.377-0.561 18.883-0.865 28.257-0.907l-0.041-9.516zM538.469-72.477l-0.483 9.503c9.4 0.48 18.88 1.23 28.182 2.227l1.013-9.462c-9.475-1.018-19.138-1.78-28.711-2.268zM452.193-69.689c-9.534 1.111-19.125 2.5-28.507 4.133l1.633 9.377c9.206-1.604 18.619-2.971 27.978-4.058l-1.103-9.452zM595.724-66.337l-1.547 9.392c9.281 1.527 18.619 3.335 27.755 5.375l2.072-9.289c-9.31-2.079-18.826-3.924-28.28-5.479zM395.455-59.825c-9.317 2.17-18.691 4.637-27.861 7.326l2.679 9.131c8.997-2.64 18.195-5.058 27.34-7.186l-2.157-9.271zM651.927-53.793l-2.599 9.155c9.031 2.562 18.108 5.414 26.973 8.48l3.107-8.997c-9.031-3.12-18.278-6.029-27.482-8.638zM340.192-43.605c-9.028 3.213-18.079 6.729-26.903 10.449l3.696 8.77c8.659-3.647 17.539-7.098 26.399-10.255l-3.193-8.963zM706.363-34.97l-3.616 8.806c8.651 3.549 17.33 7.403 25.792 11.451l4.107-8.589c-8.625-4.123-17.467-8.049-26.283-11.668zM287.030-21.199c-8.589 4.208-17.178 8.721-25.534 13.417l4.663 8.294c8.196-4.606 16.627-9.036 25.056-13.166l-4.185-8.545zM758.242-10.162l-4.588 8.341c8.214 4.515 16.41 9.322 24.359 14.292l5.042-8.072c-8.095-5.060-16.447-9.96-24.813-14.561zM236.767 7.044c-8.057 5.143-16.082 10.593-23.85 16.196l5.564 7.718c7.625-5.494 15.501-10.844 23.408-15.894l-5.122-8.021zM807.029 20.34l-5.489 7.775c7.661 5.409 15.269 11.11 22.615 16.94l5.915-7.455c-7.481-5.941-15.233-11.748-23.041-17.26zM190.016 40.744c-7.424 6.011-14.783 12.321-21.876 18.753l6.393 7.049c6.964-6.313 14.189-12.505 21.476-18.405l-5.993-7.398zM852.123 56.131l-6.323 7.109c7.011 6.236 13.938 12.753 20.593 19.371l6.711-6.747c-6.778-6.739-13.838-13.38-20.98-19.732zM147.348 79.441c-6.701 6.799-13.308 13.887-19.639 21.070l7.137 6.292c6.215-7.047 12.704-14.006 19.28-20.68l-6.778-6.682zM892.951 96.745l-7.078 6.362c6.28 6.992 12.44 14.243 18.309 21.559l7.421-5.957c-5.975-7.452-12.252-14.843-18.653-21.964zM109.281 122.641c-5.895 7.499-11.668 15.276-17.154 23.119l7.798 5.456c5.386-7.698 11.051-15.333 16.839-22.693l-7.483-5.882zM929.004 141.686l-7.747 5.53c5.445 7.62 10.756 15.522 15.788 23.48l8.044-5.089c-5.127-8.108-10.542-16.157-16.085-23.922zM76.297 169.803c-5.029 8.126-9.891 16.498-14.45 24.886l8.362 4.544c4.471-8.23 9.245-16.447 14.181-24.421l-8.093-5.009zM959.81 190.409l-8.318 4.629c4.559 8.196 8.95 16.643 13.052 25.116l8.566-4.148c-4.182-8.633-8.656-17.245-13.3-25.596zM48.826 220.342c-4.076 8.622-7.964 17.482-11.549 26.335l8.821 3.572c3.521-8.684 7.333-17.379 11.335-25.841l-8.607-4.066zM984.943 242.316l-8.788 3.658c3.619 8.692 7.026 17.591 10.134 26.446l8.981-3.151c-3.167-9.023-6.644-18.092-10.327-26.952zM27.218 273.673c-3.087 9.059-5.951 18.319-8.514 27.526l9.167 2.552c2.513-9.031 5.326-18.115 8.354-27.006l-9.007-3.071zM1004.035 296.714l-9.144 2.64c2.599 9.012 4.978 18.224 7.062 27.371l9.281-2.116c-2.128-9.322-4.551-18.709-7.199-27.895zM11.763 329.155c-2.038 9.338-3.838 18.862-5.347 28.308l9.4 1.501c1.48-9.268 3.247-18.614 5.246-27.779l-9.299-2.030zM1016.834 352.86l-9.382 1.589c1.563 9.242 2.885 18.663 3.929 27.996l9.457-1.056c-1.062-9.508-2.41-19.107-4.004-28.528zM2.674 386.017c-0.971 9.483-1.692 19.146-2.139 28.722l9.508 0.442c0.437-9.4 1.144-18.883 2.097-28.192l-9.467-0.971zM1023.235 410.092l-9.503 0.524c0.519 9.353 0.78 18.859 0.78 28.262h9.516c0.003-9.576-0.263-19.262-0.793-28.786zM9.516 443.458l-9.516 0.085c0.085 9.568 0.439 19.249 1.054 28.778l9.498-0.612c-0.602-9.353-0.951-18.859-1.036-28.251zM1014.156 457.972c-0.346 9.364-0.966 18.854-1.837 28.21l9.475 0.883c0.889-9.532 1.519-19.2 1.875-28.74l-9.514-0.354zM13.158 499.86l-9.446 1.144c1.149 9.503 2.583 19.087 4.265 28.489l9.369-1.676c-1.651-9.224-3.058-18.632-4.187-27.957zM1008.902 514.245c-1.4 9.286-3.076 18.647-4.993 27.823l9.317 1.945c1.953-9.351 3.663-18.89 5.086-28.352l-9.41-1.416zM23.098 555.495l-9.26 2.201c2.211 9.312 4.719 18.673 7.452 27.828l9.121-2.723c-2.684-8.981-5.143-18.17-7.313-27.306zM997.353 569.565c-2.433 9.056-5.158 18.167-8.103 27.081l9.038 2.986c2.999-9.085 5.778-18.371 8.258-27.598l-9.193-2.469zM39.255 609.649l-8.95 3.234c3.25 9 6.809 18.035 10.573 26.854l8.752-3.735c-3.691-8.656-7.184-17.524-10.374-26.353zM979.622 623.229c-3.433 8.705-7.166 17.436-11.094 25.945l8.643 3.988c4.001-8.671 7.804-17.568 11.304-26.441l-8.852-3.492zM61.481 661.714l-8.527 4.226c4.254 8.581 8.806 17.149 13.533 25.469l8.274-4.701c-4.637-8.163-9.105-16.573-13.28-24.994zM955.982 674.462c-4.394 8.266-9.090 16.527-13.951 24.552l8.137 4.934c4.96-8.178 9.743-16.594 14.217-25.015l-8.403-4.471zM89.427 710.915l-7.997 5.161c5.192 8.046 10.676 16.046 16.302 23.775l7.695-5.6c-5.52-7.587-10.903-15.437-16-23.336zM926.71 722.746c-5.306 7.734-10.901 15.421-16.627 22.848l7.532 5.815c5.838-7.566 11.539-15.398 16.943-23.276l-7.847-5.386zM122.708 756.649l-7.37 6.024c6.052 7.406 12.394 14.737 18.854 21.791l7.018-6.427c-6.339-6.925-12.564-14.122-18.503-21.388zM892.194 767.477c-6.137 7.096-12.559 14.114-19.087 20.856l6.84 6.621c6.646-6.871 13.189-14.021 19.443-21.249l-7.197-6.228zM160.876 798.356l-6.649 6.809c6.835 6.677 13.954 13.254 21.158 19.544l6.259-7.168c-7.070-6.176-14.060-12.631-20.768-19.185zM852.88 808.094c-6.902 6.378-14.070 12.634-21.303 18.601l6.055 7.341c7.37-6.081 14.672-12.456 21.706-18.952l-6.458-6.99zM203.445 835.526l-5.848 7.507c7.54 5.874 15.346 11.611 23.199 17.051l5.419-7.824c-7.708-5.339-15.369-10.968-22.77-16.733zM809.261 844.077c-7.563 5.559-15.388 10.978-23.258 16.106l5.195 7.974c8.021-5.226 15.995-10.748 23.7-16.413l-5.636-7.667zM249.879 867.686l-4.97 8.116c8.139 4.985 16.534 9.808 24.95 14.336l4.508-8.382c-8.261-4.443-16.498-9.175-24.488-14.070zM761.869 874.963c-8.157 4.683-16.547 9.191-24.935 13.399l4.265 8.506c8.545-4.285 17.095-8.878 25.407-13.652l-4.737-8.253zM299.596 894.419l-4.027 8.622c8.656 4.045 17.534 7.889 26.389 11.428l3.534-8.837c-8.69-3.472-17.402-7.246-25.896-11.213zM711.276 900.329c-8.63 3.733-17.48 7.264-26.301 10.498l3.275 8.938c8.989-3.296 18.009-6.894 26.805-10.699l-3.779-8.736zM352.028 915.388l-3.027 9.023c9.064 3.040 18.335 5.864 27.559 8.387l2.511-9.18c-9.051-2.477-18.149-5.246-27.043-8.23zM658.113 919.818c-8.976 2.723-18.151 5.226-27.275 7.437l2.245 9.25c9.297-2.255 18.647-4.805 27.792-7.579l-2.761-9.108zM406.54 930.301l-1.989 9.307c9.338 1.994 18.872 3.748 28.329 5.218l1.459-9.405c-9.284-1.441-18.637-3.164-27.799-5.12zM603.189 933.134c-9.237 1.692-18.637 3.141-27.941 4.311l1.186 9.444c9.48-1.191 19.061-2.668 28.471-4.391l-1.715-9.364zM462.384 938.967l-0.927 9.472c9.506 0.93 19.172 1.607 28.729 2.007l0.4-9.508c-9.384-0.395-18.872-1.059-28.202-1.971zM547.11 940.178c-9.335 0.646-18.839 1.036-28.244 1.16l0.124 9.519c9.583-0.129 19.265-0.527 28.773-1.183l-0.654-9.495zM396.021 503.256c0 114.163 0 134.655-1.462 158.073-1.465 24.88-7.318 36.59-31.47 41.712-5.856 1.462-18.296 2.196-24.88 2.196-2.927 0-5.856 1.462-5.856 4.391 0 4.391 3.66 5.856 11.709 5.856 32.932 0 76.842-2.196 82.696-2.196 16.1 0 58.546 2.196 92.209 2.196 91.478 0 124.41-30.736 136.117-41.715 16.1-15.367 36.592-48.299 36.592-95.867 0-95.138-76.109-165.391-180.027-165.391-3.66 0-11.709 0-15.367 0.731-3.66 0-8.049 1.465-8.049 5.122 0 5.856 4.391 6.587 19.758 6.587 70.986 0 126.606 48.299 126.606 125.141 0 18.296-2.196 67.326-40.981 106.845s-83.427 36.592-100.258 36.592c-12.44 0-24.88-1.462-31.467-4.391-4.391-1.465-5.856-6.587-5.856-13.905v-300.777c0-70.255 0-128.070 3.66-158.807 2.196-21.223 6.587-37.323 28.541-40.25 10.245-1.462 26.345-2.927 32.932-2.927 4.391 0 5.856-2.196 5.856-4.391 0-3.66-3.66-5.856-11.709-5.856-40.25 0-86.356 2.196-90.013 2.196-2.196 0-48.301-2.196-70.255-2.196-8.052 0-11.709 1.465-11.709 5.856 0 2.196 1.465 4.391 5.856 4.391 6.587 0 15.369 1.465 21.954 2.927 14.638 2.927 18.296 19.027 21.223 40.25 3.66 30.736 3.66 88.551 3.66 158.807v128.799z" />
<glyph unicode="&#xe91f;" glyph-name="expert" data-tags="expert" horiz-adv-x="927" d="M810.077 272.254l-345.395-345.395-164.749 164.749 345.395 345.395 164.749-164.749zM117.209 605.549l345.305 345.305 164.749-164.749-345.305-345.305-164.749 164.749zM34.281 522.624l82.927 82.927 348.324-348.324-165.689-165.689-265.562 265.562c-45.708 45.708-45.708 119.816 0 165.524zM892.908 355.282l-82.927-82.927-348.324 348.324 165.689 165.689 265.562-265.562c45.708-45.71 45.708-119.818 0-165.524z" />
<glyph unicode="&#xea55;" glyph-name="radio-checked" data-tags="radio-checked, radio-button" d="M512 960c-282.8 0-512-229.2-512-512s229.2-512 512-512 512 229.2 512 512-229.2 512-512 512z" />
<glyph unicode="&#xea56;" glyph-name="radio-unchecked" data-tags="radio-unchecked, radio-button, circle" d="M512 960c-282.77 0-512-229.23-512-512s229.23-512 512-512 512 229.23 512 512-229.23 512-512 512zM512 64c-212.078 0-384 171.922-384 384s171.922 384 384 384c212.078 0 384-171.922 384-384s-171.922-384-384-384z" />
<glyph unicode="&#xeab5;" glyph-name="github5" data-tags="github, brand, octacat, social" d="M235.278 711.28c-50.792 0-94.484-16.806-131.084-50.416-38.086-35.852-57.14-80.66-57.14-134.436 0-35.852 10.376-69.462 31.294-100.832 18.674-29.126 38.18-47.806 63.778-56.024v-2.242c-25.598-10.448-36.966-36.59-36.966-78.418 0-32.124 11.372-56.022 36.966-71.708v-2.242c-70.654-23.146-102.992-66.094-102.992-128.83 0-54.534 23.748-94.488 70.066-119.878 36.59-20.172 83.578-30.254 140.346-30.254 138.17 0 207.406 57.882 207.406 173.664 0 72.446-53.322 116.882-160.128 133.316-24.646 3.726-43.286 12.696-55.982 26.89-9.708 9.708-14.542 19.418-14.542 29.126 0 27.632 14.958 43.696 44.82 48.176 45.558 6.714 82.728 27.824 111.486 63.296 28.75 35.48 43.13 77.118 43.13 124.916 0 14.938-4.518 30.996-10.488 48.172 19.418 4.488 33.050 8.594 43.292 12.332v115.392c-45.054-17.928-86.99-26.884-122.842-26.884-31.374 17.922-63.824 26.884-100.42 26.884zM247.602 152.23c62.744 0 94.104-19.042 94.104-57.14 0-40.336-28.754-60.492-86.264-60.492-65.724 0-98.586 19.422-98.586 58.254-0.002 39.59 30.244 59.378 90.746 59.378zM239.76 448c-47.054 0-70.586 25.764-70.586 77.308 0 55.262 23.532 82.906 70.586 82.906 22.402 0 39.958-8.596 52.652-25.768 10.458-15.69 15.69-34.36 15.69-56.022 0-52.278-22.786-78.424-68.342-78.424zM580.384 960c-21.656 0-40.14-8.214-55.454-24.648-15.314-16.436-22.97-36.216-22.97-59.376 0-22.41 7.658-41.82 22.97-58.258 15.308-16.434 33.792-24.64 55.454-24.64 20.91 0 39.028 8.208 54.34 24.64 15.312 16.438 22.96 35.848 22.96 58.258 0 23.16-7.648 42.944-22.96 59.376-15.318 16.434-33.43 24.648-54.34 24.648zM643.13 704.002h-126.606c1.496-14.336-0.64-36.042-0.64-71.14v-348.432c0-35.856 2.136-64.774 0.64-76.036h126.606c-1.5 16.376-5.394 44.668-5.394 82.758v343.946c-0.006 32.864 3.894 54.568 5.394 68.904zM922.336 315.8c-32.872 0-49.082 25.028-49.082 75.066v206.64h49.864c8.96 0 17.032 0.492 27.118-0.246 10.086-0.748 14.152-0.25 19.278-0.25v106.99h-96.258v47.616c0 17.922 2.816 34.302 5.054 44.542h-129.958c2.242-10.24 2.028-25.876 2.028-46.79v-45.368h-56.32v-106.988c15.364 2.24 29.090 3.356 38.796 3.356l17.524-1.118v-202.786c0-62.742 7.958-108.672 23.636-137.8 20.922-38.84 57.622-58.258 112.136-58.258 38.848 0 73.118 7.464 98.714 22.41v112.032c-20.474-12.7-39.382-19.048-62.53-19.048z" />
<glyph unicode="&#xeab8;" glyph-name="joomla" data-tags="joomla, brand, cms" d="M266.004 683.322c32.832 32.844 86.002 32.844 118.804 0.032l7.826-7.868 101.104 101.156-7.874 7.88c-57.624 57.7-138.514 77.878-212.42 60.522-10.594 65.182-67.088 114.924-135.174 114.956-75.65 0-136.954-61.442-136.97-137.158 0-65.336 45.59-120 106.662-133.83-23.138-77.45-4.242-164.834 56.846-225.984l227.826-227.9 100.996 101.214-227.81 227.886c-32.682 32.722-32.742 86.126 0.184 119.094zM1022.712 822.842c0.016 75.762-61.318 137.158-136.984 137.158-69.234 0-126.478-51.444-135.682-118.238-77.074 22.664-163.784 3.496-224.64-57.408l-227.84-227.9 101.102-101.172 227.766 227.856c32.94 32.966 85.988 32.906 118.684 0.184 32.8-32.83 32.8-86.114-0.032-118.956l-7.794-7.836 101.010-101.248 7.858 7.928c60.458 60.566 79.678 146.756 57.612 223.638 67.15 8.834 118.94 66.364 118.94 135.994zM906.266 208.936c18.102 74.458-1.976 156.324-60.108 214.5l-227.49 227.992-101.102-101.122 227.52-228.012c32.94-32.996 32.864-86.096 0.184-118.848-32.802-32.814-86.004-32.814-118.836 0.030l-7.766 7.79-100.994-101.246 7.732-7.728c61.516-61.594 149.618-80.438 227.368-56.488 12.632-62.682 67.934-109.804 134.258-109.804 75.604 0 136.968 61.35 136.968 137.126 0 69.2-51.18 126.456-117.734 135.81zM612.344 431.316l-227.536-227.992c-32.71-32.768-86.034-32.828-118.944 0.124-32.818 32.904-32.832 86.098-0.044 118.97l7.808 7.774-101.086 101.124-7.734-7.712c-58.76-58.802-78.56-141.834-59.45-216.982-60.398-14.26-105.358-68.634-105.358-133.496-0.016-75.746 61.332-137.126 136.982-137.126 65.1 0.032 119.588 45.418 133.54 106.382 74.702-18.552 156.998 1.304 215.344 59.756l227.49 227.96-101.012 101.218z" />
<glyph unicode="&#xeae2;" glyph-name="git" data-tags="git" d="M1004.692 493.606l-447.096 447.080c-25.738 25.754-67.496 25.754-93.268 0l-103.882-103.876 78.17-78.17c12.532 5.996 26.564 9.36 41.384 9.36 53.020 0 96-42.98 96-96 0-14.82-3.364-28.854-9.362-41.386l127.976-127.974c12.532 5.996 26.566 9.36 41.386 9.36 53.020 0 96-42.98 96-96s-42.98-96-96-96-96 42.98-96 96c0 14.82 3.364 28.854 9.362 41.386l-127.976 127.974c-3.042-1.456-6.176-2.742-9.384-3.876v-266.968c37.282-13.182 64-48.718 64-90.516 0-53.020-42.98-96-96-96s-96 42.98-96 96c0 41.796 26.718 77.334 64 90.516v266.968c-37.282 13.18-64 48.72-64 90.516 0 14.82 3.364 28.852 9.36 41.384l-78.17 78.17-295.892-295.876c-25.75-25.776-25.75-67.534 0-93.288l447.12-447.080c25.738-25.75 67.484-25.75 93.268 0l445.006 445.006c25.758 25.762 25.758 67.54-0.002 93.29z" />
<glyph unicode="&#xf08b;" glyph-name="sign-out" data-tags="sign-out" horiz-adv-x="951" d="M0 237.714v402.286q0 68 48.286 116.286t116.286 48.286h182.857q7.429 0 12.857-5.429t5.429-12.857q0-2.286 0.571-11.429t0.286-15.143-1.714-13.429-5.714-11.143-11.714-3.714h-182.857q-37.714 0-64.571-26.857t-26.857-64.571v-402.286q0-37.714 26.857-64.571t64.571-26.857h178.286t6.571-0.571 6.571-1.714 4.571-3.143 4-5.143 1.143-7.714q0-2.286 0.571-11.429t0.286-15.143-1.714-13.429-5.714-11.143-11.714-3.714h-182.857q-68 0-116.286 48.286t-48.286 116.286zM219.429 329.143v219.429q0 14.857 10.857 25.714t25.714 10.857h256v164.571q0 14.857 10.857 25.714t25.714 10.857 25.714-10.857l310.857-310.857q10.857-10.857 10.857-25.714t-10.857-25.714l-310.857-310.857q-10.857-10.857-25.714-10.857t-25.714 10.857-10.857 25.714v164.571h-256q-14.857 0-25.714 10.857t-10.857 25.714z" />
<glyph unicode="&#xf148;" glyph-name="level-up" data-tags="level-up" horiz-adv-x="585" d="M1.714 83.428q-4.571 11.429 2.286 20l91.429 109.714q5.143 6.286 14.286 6.286h182.857v365.714h-109.714q-22.857 0-33.143 21.143-9.714 21.143 5.143 38.857l182.857 219.429q10.286 12.571 28 12.571t28-12.571l182.857-219.429q15.429-18.286 5.143-38.857-10.286-21.143-33.143-21.143h-109.714v-493.714q0-8-5.143-13.143t-13.143-5.143h-402.286q-12 0-16.571 10.286z" />
</font>
</defs>
</svg>
